Genome-Thin.ufo
<glyph name="exclam" format="1">
  <advance width="190"/>
  <unicode hex="0021"/>
  <outline>
    <contour>
      <point x="105" y="99" type="line"/>
      <point x="85" y="99" type="line"/>
      <point x="85" y="0" type="line"/>
      <point x="105" y="0" type="line"/>
    </contour>
    <contour>
      <point x="105" y="740" type="line"/>
      <point x="85" y="740" type="line"/>
      <point x="85" y="205" type="line"/>
      <point x="105" y="205" type="line"/>
    </contour>
  </outline>
</glyph>
<glyph name="quotedbl" format="1">
  <advance width="290"/>
  <unicode hex="0022"/>
  <outline>
    <contour>
      <point x="105" y="690" type="line"/>
      <point x="85" y="690" type="line"/>
      <point x="85" y="492" type="line"/>
      <point x="105" y="492" type="line"/>
    </contour>
    <contour>
      <point x="205" y="690" type="line"/>
      <point x="185" y="690" type="line"/>
      <point x="185" y="492" type="line"/>
      <point x="205" y="492" type="line"/>
    </contour>
  </outline>
</glyph>
<glyph name="numbersign" format="1">
  <advance width="804"/>
  <unicode hex="0023"/>
  <outline>
    <contour>
      <point x="473" y="227" type="line"/>
      <point x="243" y="227" type="line"/>
      <point x="332" y="475" type="line"/>
      <point x="562" y="475" type="line"/>
    </contour>
    <contour>
      <point x="590" y="495" type="line"/>
      <point x="660" y="690" type="line"/>
      <point x="638" y="690" type="line"/>
      <point x="569" y="495" type="line"/>
      <point x="339" y="495" type="line"/>
      <point x="409" y="690" type="line"/>
      <point x="387" y="690" type="line"/>
      <point x="318" y="495" type="line"/>
      <point x="133" y="495" type="line"/>
      <point x="126" y="475" type="line"/>
      <point x="311" y="475" type="line"/>
      <point x="222" y="227" type="line"/>
      <point x="37" y="227" type="line"/>
      <point x="30" y="207" type="line"/>
      <point x="215" y="207" type="line"/>
      <point x="141" y="0" type="line"/>
      <point x="162" y="0" type="line"/>
      <point x="236" y="207" type="line"/>
      <point x="466" y="207" type="line"/>
      <point x="392" y="0" type="line"/>
      <point x="413" y="0" type="line"/>
      <point x="487" y="207" type="line"/>
      <point x="671" y="207" type="line"/>
      <point x="678" y="227" type="line"/>
      <point x="678" y="227" type="line"/>
      <point x="494" y="227" type="line"/>
      <point x="583" y="475" type="line"/>
      <point x="767" y="475" type="line"/>
      <point x="774" y="495" type="line"/>
    </contour>
  </outline>
</glyph>
<glyph name="dollar" format="1">
  <advance width="592"/>
  <unicode hex="0024"/>
  <outline>
    <contour>
      <point x="512" y="52"/>
      <point x="414" y="10"/>
      <point x="306" y="10" type="curve"/>
      <point x="306" y="338" type="line"/>
      <point x="410" y="315"/>
      <point x="512" y="291"/>
      <point x="512" y="176" type="curve" smooth="yes"/>
    </contour>
    <contour>
      <point x="192" y="384"/>
      <point x="108" y="411"/>
      <point x="108" y="513" type="curve" smooth="yes"/>
      <point x="108" y="617"/>
      <point x="189" y="676"/>
      <point x="286" y="680" type="curve"/>
      <point x="286" y="363" type="line"/>
    </contour>
    <contour>
      <point x="532" y="309"/>
      <point x="416" y="333"/>
      <point x="306" y="358" type="curve"/>
      <point x="306" y="680" type="line"/>
      <point x="400" y="677"/>
      <point x="473" y="629"/>
      <point x="500" y="534" type="curve"/>
      <point x="520" y="540" type="line"/>
      <point x="489" y="643"/>
      <point x="409" y="697"/>
      <point x="306" y="700" type="curve"/>
      <point x="306" y="770" type="line"/>
      <point x="286" y="770" type="line"/>
      <point x="286" y="700" type="line"/>
      <point x="178" y="696"/>
      <point x="88" y="628"/>
      <point x="88" y="513" type="curve" smooth="yes"/>
      <point x="88" y="394"/>
      <point x="185" y="366"/>
      <point x="286" y="342" type="curve"/>
      <point x="286" y="11" type="line"/>
      <point x="180" y="16"/>
      <point x="103" y="65"/>
      <point x="69" y="172" type="curve"/>
      <point x="50" y="166" type="line"/>
      <point x="86" y="51"/>
      <point x="171" y="-4"/>
      <point x="286" y="-9" type="curve"/>
      <point x="286" y="-80" type="line"/>
      <point x="306" y="-80" type="line"/>
      <point x="306" y="-10" type="line"/>
      <point x="426" y="-10"/>
      <point x="532" y="41"/>
      <point x="532" y="176" type="curve" smooth="yes"/>
    </contour>
  </outline>
</glyph>
<glyph name="percent" format="1">
  <advance width="618"/>
  <unicode hex="0025"/>
  <outline>
    <contour>
      <point x="543" y="71"/>
      <point x="517" y="19"/>
      <point x="455" y="19" type="curve" smooth="yes"/>
      <point x="393" y="19"/>
      <point x="367" y="71"/>
      <point x="367" y="126" type="curve" smooth="yes"/>
      <point x="367" y="181"/>
      <point x="393" y="233"/>
      <point x="455" y="233" type="curve" smooth="yes"/>
      <point x="517" y="233"/>
      <point x="543" y="181"/>
      <point x="543" y="126" type="curve" smooth="yes"/>
    </contour>
    <contour>
      <point x="563" y="189"/>
      <point x="532" y="252"/>
      <point x="455" y="252" type="curve" smooth="yes"/>
      <point x="379" y="252"/>
      <point x="347" y="189"/>
      <point x="347" y="126" type="curve" smooth="yes"/>
      <point x="347" y="64"/>
      <point x="379" y="0"/>
      <point x="455" y="0" type="curve" smooth="yes"/>
      <point x="532" y="0"/>
      <point x="563" y="64"/>
      <point x="563" y="126" type="curve" smooth="yes"/>
    </contour>
    <contour>
      <point x="424" y="690" type="line"/>
      <point x="173" y="0" type="line"/>
      <point x="194" y="0" type="line"/>
      <point x="445" y="690" type="line"/>
    </contour>
    <contour>
      <point x="251" y="519"/>
      <point x="225" y="467"/>
      <point x="163" y="467" type="curve" smooth="yes"/>
      <point x="101" y="467"/>
      <point x="75" y="519"/>
      <point x="75" y="574" type="curve" smooth="yes"/>
      <point x="75" y="629"/>
      <point x="101" y="681"/>
      <point x="163" y="681" type="curve" smooth="yes"/>
      <point x="225" y="681"/>
      <point x="251" y="629"/>
      <point x="251" y="574" type="curve" smooth="yes"/>
    </contour>
    <contour>
      <point x="271" y="636"/>
      <point x="239" y="700"/>
      <point x="163" y="700" type="curve" smooth="yes"/>
      <point x="86" y="700"/>
      <point x="55" y="636"/>
      <point x="55" y="574" type="curve" smooth="yes"/>
      <point x="55" y="511"/>
      <point x="86" y="448"/>
      <point x="163" y="448" type="curve" smooth="yes"/>
      <point x="239" y="448"/>
      <point x="271" y="511"/>
      <point x="271" y="574" type="curve" smooth="yes"/>
    </contour>
  </outline>
</glyph>
<glyph name="ampersand" format="1">
  <advance width="621"/>
  <unicode hex="0026"/>
  <outline>
    <contour>
      <point x="408" y="53"/>
      <point x="330" y="10"/>
      <point x="241" y="10" type="curve" smooth="yes"/>
      <point x="161" y="10"/>
      <point x="94" y="37"/>
      <point x="73" y="120" type="curve" smooth="yes"/>
      <point x="71" y="129"/>
      <point x="70" y="139"/>
      <point x="70" y="148" type="curve" smooth="yes"/>
      <point x="70" y="240"/>
      <point x="192" y="315"/>
      <point x="261" y="359" type="curve"/>
      <point x="326" y="281"/>
      <point x="393" y="203"/>
      <point x="459" y="126" type="curve"/>
    </contour>
    <contour>
      <point x="418" y="473"/>
      <point x="331" y="429"/>
      <point x="265" y="386" type="curve"/>
      <point x="224" y="435"/>
      <point x="160" y="497"/>
      <point x="160" y="564" type="curve" smooth="yes"/>
      <point x="160" y="641"/>
      <point x="226" y="680"/>
      <point x="296" y="680" type="curve" smooth="yes"/>
      <point x="363" y="680"/>
      <point x="418" y="632"/>
      <point x="418" y="564" type="curve" smooth="yes"/>
    </contour>
    <contour>
      <point x="559" y="40"/>
      <point x="521" y="84"/>
      <point x="484" y="127" type="curve"/>
      <point x="524" y="190"/>
      <point x="543" y="264"/>
      <point x="549" y="337" type="curve"/>
      <point x="529" y="339" type="line"/>
      <point x="523" y="271"/>
      <point x="506" y="202"/>
      <point x="470" y="143" type="curve"/>
      <point x="406" y="219"/>
      <point x="341" y="294"/>
      <point x="278" y="370" type="curve"/>
      <point x="351" y="418"/>
      <point x="438" y="464"/>
      <point x="438" y="564" type="curve" smooth="yes"/>
      <point x="438" y="643"/>
      <point x="374" y="700"/>
      <point x="296" y="700" type="curve" smooth="yes"/>
      <point x="215" y="700"/>
      <point x="140" y="652"/>
      <point x="140" y="564" type="curve" smooth="yes"/>
      <point x="140" y="489"/>
      <point x="203" y="429"/>
      <point x="248" y="375" type="curve"/>
      <point x="173" y="326"/>
      <point x="50" y="249"/>
      <point x="50" y="148" type="curve" smooth="yes"/>
      <point x="50" y="137"/>
      <point x="51" y="126"/>
      <point x="54" y="116" type="curve"/>
      <point x="75" y="23"/>
      <point x="153" y="-10"/>
      <point x="241" y="-10" type="curve" smooth="yes"/>
      <point x="335" y="-10"/>
      <point x="417" y="35"/>
      <point x="472" y="110" type="curve"/>
      <point x="509" y="68"/>
      <point x="545" y="26"/>
      <point x="581" y="-17" type="curve"/>
      <point x="596" y="-3" type="line"/>
    </contour>
  </outline>
</glyph>
<glyph name="quotesingle" format="1">
  <advance width="190"/>
  <unicode hex="0027"/>
  <outline>
    <contour>
      <point x="105" y="690" type="line"/>
      <point x="85" y="690" type="line"/>
      <point x="85" y="492" type="line"/>
      <point x="105" y="492" type="line"/>
    </contour>
  </outline>
</glyph>
<glyph name="parenleft" format="1">
  <advance width="281"/>
  <unicode hex="0028"/>
  <outline>
    <contour>
      <point x="271" y="-134" type="line"/>
      <point x="246" y="-134"/>
      <point x="227" y="-121"/>
      <point x="210" y="-104" type="curve" smooth="yes"/>
      <point x="127" y="-25"/>
      <point x="105" y="174"/>
      <point x="105" y="283" type="curve" smooth="yes"/>
      <point x="105" y="390"/>
      <point x="114" y="504"/>
      <point x="156" y="603" type="curve" smooth="yes"/>
      <point x="168" y="633"/>
      <point x="186" y="667"/>
      <point x="210" y="690" type="curve" smooth="yes"/>
      <point x="227" y="707"/>
      <point x="246" y="720"/>
      <point x="271" y="720" type="curve"/>
      <point x="271" y="740" type="line"/>
      <point x="203" y="740"/>
      <point x="160" y="665"/>
      <point x="137" y="611" type="curve" smooth="yes"/>
      <point x="99" y="520"/>
      <point x="85" y="401"/>
      <point x="85" y="303" type="curve" smooth="yes"/>
      <point x="85" y="194"/>
      <point x="94" y="77"/>
      <point x="137" y="-25" type="curve" smooth="yes"/>
      <point x="160" y="-79"/>
      <point x="203" y="-154"/>
      <point x="271" y="-154" type="curve"/>
    </contour>
  </outline>
</glyph>
<glyph name="parenright" format="1">
  <advance width="281"/>
  <unicode hex="0029"/>
  <outline>
    <contour>
      <point x="196" y="401"/>
      <point x="182" y="520"/>
      <point x="144" y="611" type="curve" smooth="yes"/>
      <point x="121" y="665"/>
      <point x="78" y="740"/>
      <point x="10" y="740" type="curve"/>
      <point x="10" y="720" type="line"/>
      <point x="35" y="720"/>
      <point x="54" y="707"/>
      <point x="71" y="690" type="curve" smooth="yes"/>
      <point x="95" y="667"/>
      <point x="113" y="633"/>
      <point x="125" y="603" type="curve" smooth="yes"/>
      <point x="167" y="504"/>
      <point x="176" y="390"/>
      <point x="176" y="283" type="curve" smooth="yes"/>
      <point x="176" y="174"/>
      <point x="154" y="-25"/>
      <point x="71" y="-104" type="curve" smooth="yes"/>
      <point x="54" y="-121"/>
      <point x="35" y="-134"/>
      <point x="10" y="-134" type="curve"/>
      <point x="10" y="-154" type="line"/>
      <point x="78" y="-154"/>
      <point x="121" y="-79"/>
      <point x="144" y="-25" type="curve" smooth="yes"/>
      <point x="187" y="77"/>
      <point x="196" y="194"/>
      <point x="196" y="303" type="curve" smooth="yes"/>
    </contour>
  </outline>
</glyph>
<glyph name="asterisk" format="1">
  <advance width="367"/>
  <unicode hex="002A"/>
  <outline>
    <contour>
      <point x="334" y="594" type="line"/>
      <point x="188" y="542" type="line"/>
      <point x="201" y="690" type="line"/>
      <point x="166" y="690" type="line"/>
      <point x="179" y="542" type="line"/>
      <point x="33" y="594" type="line"/>
      <point x="22" y="560" type="line"/>
      <point x="176" y="533" type="line"/>
      <point x="73" y="404" type="line"/>
      <point x="102" y="383" type="line"/>
      <point x="184" y="527" type="line"/>
      <point x="266" y="383" type="line"/>
      <point x="294" y="404" type="line"/>
      <point x="191" y="533" type="line"/>
      <point x="345" y="560" type="line"/>
    </contour>
  </outline>
</glyph>
<glyph name="plus" format="1">
  <advance width="375"/>
  <unicode hex="002B"/>
  <outline>
    <contour>
      <point x="355" y="253" type="line"/>
      <point x="198" y="253" type="line"/>
      <point x="198" y="410" type="line"/>
      <point x="178" y="410" type="line"/>
      <point x="178" y="253" type="line"/>
      <point x="20" y="253" type="line"/>
      <point x="20" y="233" type="line"/>
      <point x="178" y="233" type="line"/>
      <point x="178" y="75" type="line"/>
      <point x="198" y="75" type="line"/>
      <point x="198" y="233" type="line"/>
      <point x="355" y="233" type="line"/>
    </contour>
  </outline>
</glyph>
<glyph name="comma" format="1">
  <advance width="210"/>
  <unicode hex="002C"/>
  <outline>
    <contour>
      <point x="120" y="99" type="line"/>
      <point x="100" y="99" type="line"/>
      <point x="100" y="0" type="line" smooth="yes"/>
      <point x="100" y="-31"/>
      <point x="101" y="-64"/>
      <point x="60" y="-63" type="curve"/>
      <point x="60" y="-82" type="line"/>
      <point x="113" y="-82"/>
      <point x="120" y="-44"/>
      <point x="120" y="0" type="curve" smooth="yes"/>
    </contour>
  </outline>
</glyph>
<glyph name="hyphen" format="1">
  <advance width="345"/>
  <unicode hex="002D"/>
  <outline>
    <contour>
      <point x="325" y="253" type="line"/>
      <point x="20" y="253" type="line"/>
      <point x="20" y="233" type="line"/>
      <point x="325" y="233" type="line"/>
    </contour>
  </outline>
</glyph>
<glyph name="period" format="1">
  <advance width="190"/>
  <unicode hex="002E"/>
  <outline>
    <contour>
      <point x="105" y="99" type="line"/>
      <point x="85" y="99" type="line"/>
      <point x="85" y="0" type="line"/>
      <point x="105" y="0" type="line"/>
    </contour>
  </outline>
</glyph>
<glyph name="slash" format="1">
  <advance width="277"/>
  <unicode hex="002F"/>
  <outline>
    <contour>
      <point x="288" y="747" type="line"/>
      <point x="-30" y="-127" type="line"/>
      <point x="-11" y="-134" type="line"/>
      <point x="307" y="740" type="line"/>
    </contour>
  </outline>
</glyph>
<glyph name="zero" format="1">
  <advance width="628"/>
  <unicode hex="0030"/>
  <outline>
    <contour>
      <point x="538" y="205"/>
      <point x="488" y="10"/>
      <point x="314" y="10" type="curve" smooth="yes"/>
      <point x="140" y="10"/>
      <point x="90" y="205"/>
      <point x="90" y="345" type="curve" smooth="yes"/>
      <point x="90" y="485"/>
      <point x="140" y="680"/>
      <point x="314" y="680" type="curve" smooth="yes"/>
      <point x="488" y="680"/>
      <point x="538" y="485"/>
      <point x="538" y="345" type="curve" smooth="yes"/>
    </contour>
    <contour>
      <point x="558" y="497"/>
      <point x="501" y="700"/>
      <point x="314" y="700" type="curve" smooth="yes"/>
      <point x="127" y="700"/>
      <point x="70" y="497"/>
      <point x="70" y="345" type="curve" smooth="yes"/>
      <point x="70" y="193"/>
      <point x="127" y="-10"/>
      <point x="314" y="-10" type="curve" smooth="yes"/>
      <point x="501" y="-10"/>
      <point x="558" y="193"/>
      <point x="558" y="345" type="curve" smooth="yes"/>
    </contour>
  </outline>
</glyph>
<glyph name="one" format="1">
  <advance width="384"/>
  <unicode hex="0031"/>
  <outline>
    <contour>
      <point x="264" y="690" type="line"/>
      <point x="239" y="690" type="line"/>
      <point x="40" y="525" type="line"/>
      <point x="53" y="509" type="line"/>
      <point x="244" y="669" type="line"/>
      <point x="244" y="0" type="line"/>
      <point x="264" y="0" type="line"/>
    </contour>
  </outline>
</glyph>
<glyph name="two" format="1">
  <advance width="557"/>
  <unicode hex="0032"/>
  <outline>
    <contour>
      <point x="502" y="20" type="line"/>
      <point x="79" y="20" type="line"/>
      <point x="131" y="251"/>
      <point x="474" y="285"/>
      <point x="474" y="525" type="curve" smooth="yes"/>
      <point x="474" y="630"/>
      <point x="393" y="700"/>
      <point x="291" y="700" type="curve" smooth="yes"/>
      <point x="158" y="700"/>
      <point x="86" y="600"/>
      <point x="77" y="476" type="curve"/>
      <point x="97" y="474" type="line"/>
      <point x="105" y="587"/>
      <point x="168" y="680"/>
      <point x="291" y="680" type="curve" smooth="yes"/>
      <point x="382" y="680"/>
      <point x="454" y="619"/>
      <point x="454" y="525" type="curve" smooth="yes"/>
      <point x="454" y="290"/>
      <point x="101" y="272"/>
      <point x="55" y="0" type="curve"/>
      <point x="502" y="0" type="line"/>
    </contour>
  </outline>
</glyph>
<glyph name="three" format="1">
  <advance width="586"/>
  <unicode hex="0033"/>
  <outline>
    <contour>
      <point x="516" y="281"/>
      <point x="458" y="349"/>
      <point x="366" y="371" type="curve"/>
      <point x="438" y="395"/>
      <point x="477" y="455"/>
      <point x="477" y="530" type="curve" smooth="yes"/>
      <point x="477" y="641"/>
      <point x="395" y="700"/>
      <point x="291" y="700" type="curve" smooth="yes"/>
      <point x="186" y="700"/>
      <point x="104" y="641"/>
      <point x="104" y="530" type="curve"/>
      <point x="124" y="530" type="line"/>
      <point x="124" y="630"/>
      <point x="197" y="680"/>
      <point x="291" y="680" type="curve" smooth="yes"/>
      <point x="384" y="680"/>
      <point x="457" y="630"/>
      <point x="457" y="530" type="curve" smooth="yes"/>
      <point x="457" y="433"/>
      <point x="386" y="380"/>
      <point x="294" y="380" type="curve" smooth="yes"/>
      <point x="280" y="380" type="line"/>
      <point x="280" y="360" type="line"/>
      <point x="294" y="360" type="line" smooth="yes"/>
      <point x="402" y="360"/>
      <point x="496" y="303"/>
      <point x="496" y="185" type="curve" smooth="yes"/>
      <point x="496" y="65"/>
      <point x="400" y="10"/>
      <point x="291" y="10" type="curve" smooth="yes"/>
      <point x="181" y="10"/>
      <point x="85" y="65"/>
      <point x="85" y="185" type="curve"/>
      <point x="65" y="185" type="line"/>
      <point x="65" y="53"/>
      <point x="170" y="-10"/>
      <point x="291" y="-10" type="curve" smooth="yes"/>
      <point x="411" y="-10"/>
      <point x="516" y="53"/>
      <point x="516" y="185" type="curve" smooth="yes"/>
    </contour>
  </outline>
</glyph>
<glyph name="four" format="1">
  <advance width="556"/>
  <unicode hex="0034"/>
  <outline>
    <contour>
      <point x="49" y="208" type="line"/>
      <point x="371" y="659" type="line"/>
      <point x="371" y="208" type="line"/>
    </contour>
    <contour>
      <point x="521" y="208" type="line"/>
      <point x="391" y="208" type="line"/>
      <point x="391" y="721" type="line"/>
      <point x="10" y="188" type="line"/>
      <point x="371" y="188" type="line"/>
      <point x="371" y="0" type="line"/>
      <point x="391" y="0" type="line"/>
      <point x="391" y="188" type="line"/>
      <point x="521" y="188" type="line"/>
    </contour>
  </outline>
</glyph>
<glyph name="five" format="1">
  <advance width="561"/>
  <unicode hex="0035"/>
  <outline>
    <contour>
      <point x="491" y="336"/>
      <point x="391" y="436"/>
      <point x="268" y="436" type="curve" smooth="yes"/>
      <point x="204" y="436"/>
      <point x="143" y="408"/>
      <point x="101" y="360" type="curve"/>
      <point x="155" y="670" type="line"/>
      <point x="463" y="670" type="line"/>
      <point x="463" y="690" type="line"/>
      <point x="138" y="690" type="line"/>
      <point x="77" y="340" type="line"/>
      <point x="102" y="329" type="line"/>
      <point x="140" y="384"/>
      <point x="202" y="416"/>
      <point x="268" y="416" type="curve" smooth="yes"/>
      <point x="380" y="416"/>
      <point x="471" y="325"/>
      <point x="471" y="213" type="curve" smooth="yes"/>
      <point x="471" y="101"/>
      <point x="380" y="10"/>
      <point x="268" y="10" type="curve" smooth="yes"/>
      <point x="172" y="10"/>
      <point x="89" y="78"/>
      <point x="70" y="172" type="curve"/>
      <point x="50" y="167" type="line"/>
      <point x="71" y="64"/>
      <point x="163" y="-10"/>
      <point x="268" y="-10" type="curve" smooth="yes"/>
      <point x="391" y="-10"/>
      <point x="491" y="90"/>
      <point x="491" y="213" type="curve" smooth="yes"/>
    </contour>
  </outline>
</glyph>
<glyph name="six" format="1">
  <advance width="583"/>
  <unicode hex="0036"/>
  <outline>
    <contour>
      <point x="503" y="101"/>
      <point x="412" y="10"/>
      <point x="300" y="10" type="curve" smooth="yes"/>
      <point x="168" y="10"/>
      <point x="113" y="106"/>
      <point x="96" y="215" type="curve"/>
      <point x="102" y="326"/>
      <point x="186" y="416"/>
      <point x="300" y="416" type="curve" smooth="yes"/>
      <point x="412" y="416"/>
      <point x="503" y="325"/>
      <point x="503" y="213" type="curve" smooth="yes"/>
    </contour>
    <contour>
      <point x="523" y="336"/>
      <point x="423" y="436"/>
      <point x="300" y="436" type="curve" smooth="yes"/>
      <point x="200" y="436"/>
      <point x="121" y="373"/>
      <point x="90" y="286" type="curve"/>
      <point x="90" y="290"/>
      <point x="90" y="295"/>
      <point x="90" y="299" type="curve" smooth="yes"/>
      <point x="90" y="436"/>
      <point x="126" y="680"/>
      <point x="308" y="680" type="curve" smooth="yes"/>
      <point x="402" y="680"/>
      <point x="481" y="638"/>
      <point x="502" y="542" type="curve"/>
      <point x="522" y="546" type="line"/>
      <point x="498" y="652"/>
      <point x="411" y="700"/>
      <point x="308" y="700" type="curve" smooth="yes"/>
      <point x="111" y="700"/>
      <point x="70" y="449"/>
      <point x="70" y="299" type="curve" smooth="yes"/>
      <point x="70" y="270"/>
      <point x="72" y="242"/>
      <point x="76" y="214" type="curve"/>
      <point x="77" y="210" type="line"/>
      <point x="95" y="92"/>
      <point x="157" y="-10"/>
      <point x="300" y="-10" type="curve" smooth="yes"/>
      <point x="423" y="-10"/>
      <point x="523" y="90"/>
      <point x="523" y="213" type="curve" smooth="yes"/>
    </contour>
  </outline>
</glyph>
<glyph name="seven" format="1">
  <advance width="512"/>
  <unicode hex="0037"/>
  <outline>
    <contour>
      <point x="40" y="690" type="line"/>
      <point x="40" y="670" type="line"/>
      <point x="460" y="670" type="line"/>
      <point x="125" y="5" type="line"/>
      <point x="143" y="-4" type="line"/>
      <point x="492" y="690" type="line"/>
    </contour>
  </outline>
</glyph>
<glyph name="eight" format="1">
  <advance width="571"/>
  <unicode hex="0038"/>
  <outline>
    <contour>
      <point x="491" y="65"/>
      <point x="395" y="10"/>
      <point x="286" y="10" type="curve" smooth="yes"/>
      <point x="176" y="10"/>
      <point x="80" y="65"/>
      <point x="80" y="185" type="curve" smooth="yes"/>
      <point x="80" y="305"/>
      <point x="176" y="360"/>
      <point x="286" y="360" type="curve" smooth="yes"/>
      <point x="395" y="360"/>
      <point x="491" y="305"/>
      <point x="491" y="185" type="curve" smooth="yes"/>
    </contour>
    <contour>
      <point x="452" y="430"/>
      <point x="379" y="380"/>
      <point x="286" y="380" type="curve" smooth="yes"/>
      <point x="192" y="380"/>
      <point x="119" y="430"/>
      <point x="119" y="530" type="curve" smooth="yes"/>
      <point x="119" y="630"/>
      <point x="192" y="680"/>
      <point x="286" y="680" type="curve" smooth="yes"/>
      <point x="379" y="680"/>
      <point x="452" y="630"/>
      <point x="452" y="530" type="curve" smooth="yes"/>
    </contour>
    <contour>
      <point x="511" y="289"/>
      <point x="446" y="350"/>
      <point x="360" y="371" type="curve"/>
      <point x="427" y="393"/>
      <point x="472" y="447"/>
      <point x="472" y="530" type="curve" smooth="yes"/>
      <point x="472" y="641"/>
      <point x="390" y="700"/>
      <point x="286" y="700" type="curve" smooth="yes"/>
      <point x="181" y="700"/>
      <point x="99" y="641"/>
      <point x="99" y="530" type="curve" smooth="yes"/>
      <point x="99" y="447"/>
      <point x="145" y="393"/>
      <point x="211" y="371" type="curve"/>
      <point x="125" y="350"/>
      <point x="60" y="289"/>
      <point x="60" y="185" type="curve" smooth="yes"/>
      <point x="60" y="53"/>
      <point x="165" y="-10"/>
      <point x="286" y="-10" type="curve" smooth="yes"/>
      <point x="406" y="-10"/>
      <point x="511" y="53"/>
      <point x="511" y="185" type="curve" smooth="yes"/>
    </contour>
  </outline>
</glyph>
<glyph name="nine" format="1">
  <advance width="583"/>
  <unicode hex="0039"/>
  <outline>
    <contour>
      <point x="485" y="363"/>
      <point x="391" y="274"/>
      <point x="283" y="274" type="curve" smooth="yes"/>
      <point x="171" y="274"/>
      <point x="80" y="365"/>
      <point x="80" y="477" type="curve" smooth="yes"/>
      <point x="80" y="589"/>
      <point x="172" y="680"/>
      <point x="283" y="680" type="curve" smooth="yes"/>
      <point x="380" y="680"/>
      <point x="445" y="626"/>
      <point x="473" y="535" type="curve"/>
      <point x="478" y="521"/>
      <point x="485" y="486"/>
      <point x="485" y="472" type="curve" smooth="yes"/>
    </contour>
    <contour>
      <point x="513" y="543"/>
      <point x="462" y="700"/>
      <point x="283" y="700" type="curve" smooth="yes"/>
      <point x="160" y="700"/>
      <point x="60" y="600"/>
      <point x="60" y="477" type="curve" smooth="yes"/>
      <point x="60" y="354"/>
      <point x="160" y="254"/>
      <point x="283" y="254" type="curve" smooth="yes"/>
      <point x="379" y="254"/>
      <point x="461" y="314"/>
      <point x="493" y="404" type="curve"/>
      <point x="493" y="377" type="line" smooth="yes"/>
      <point x="494" y="237"/>
      <point x="457" y="10"/>
      <point x="275" y="10" type="curve" smooth="yes"/>
      <point x="181" y="10"/>
      <point x="106" y="54"/>
      <point x="81" y="149" type="curve"/>
      <point x="61" y="143" type="line"/>
      <point x="89" y="40"/>
      <point x="171" y="-10"/>
      <point x="275" y="-10" type="curve" smooth="yes"/>
      <point x="475" y="-10"/>
      <point x="513" y="238"/>
      <point x="513" y="392" type="curve" smooth="yes"/>
    </contour>
  </outline>
</glyph>
<glyph name="colon" format="1">
  <advance width="190"/>
  <unicode hex="003A"/>
  <outline>
    <contour>
      <point x="105" y="99" type="line"/>
      <point x="85" y="99" type="line"/>
      <point x="85" y="0" type="line"/>
      <point x="105" y="0" type="line"/>
    </contour>
    <contour>
      <point x="105" y="386" type="line"/>
      <point x="85" y="386" type="line"/>
      <point x="85" y="287" type="line"/>
      <point x="105" y="287" type="line"/>
    </contour>
  </outline>
</glyph>
<glyph name="semicolon" format="1">
  <advance width="190"/>
  <unicode hex="003B"/>
  <outline>
    <contour>
      <point x="105" y="99" type="line"/>
      <point x="85" y="99" type="line"/>
      <point x="85" y="0" type="line" smooth="yes"/>
      <point x="85" y="-31"/>
      <point x="86" y="-64"/>
      <point x="45" y="-63" type="curve"/>
      <point x="45" y="-82" type="line"/>
      <point x="98" y="-82"/>
      <point x="105" y="-44"/>
      <point x="105" y="0" type="curve" smooth="yes"/>
    </contour>
    <contour>
      <point x="105" y="386" type="line"/>
      <point x="85" y="386" type="line"/>
      <point x="85" y="287" type="line"/>
      <point x="105" y="287" type="line"/>
    </contour>
  </outline>
</glyph>
<glyph name="less" format="1">
  <advance width="620"/>
  <unicode hex="003C"/>
  <outline>
    <contour>
      <point x="570" y="21" type="line"/>
      <point x="62" y="242" type="line"/>
      <point x="570" y="462" type="line"/>
      <point x="570" y="483" type="line"/>
      <point x="50" y="256" type="line"/>
      <point x="50" y="227" type="line"/>
      <point x="570" y="0" type="line"/>
    </contour>
  </outline>
</glyph>
<glyph name="equal" format="1">
  <advance width="335"/>
  <unicode hex="003D"/>
  <outline>
    <contour>
      <point x="315" y="183" type="line"/>
      <point x="20" y="183" type="line"/>
      <point x="20" y="163" type="line"/>
      <point x="315" y="163" type="line"/>
    </contour>
    <contour>
      <point x="315" y="323" type="line"/>
      <point x="20" y="323" type="line"/>
      <point x="20" y="303" type="line"/>
      <point x="315" y="303" type="line"/>
    </contour>
  </outline>
</glyph>
<glyph name="greater" format="1">
  <advance width="630"/>
  <unicode hex="003E"/>
  <outline>
    <contour>
      <point x="575" y="256" type="line"/>
      <point x="55" y="483" type="line"/>
      <point x="55" y="462" type="line"/>
      <point x="563" y="242" type="line"/>
      <point x="55" y="21" type="line"/>
      <point x="55" y="0" type="line"/>
      <point x="575" y="227" type="line"/>
    </contour>
  </outline>
</glyph>
<glyph name="question" format="1">
  <advance width="418"/>
  <unicode hex="003F"/>
  <outline>
    <contour>
      <point x="211" y="99" type="line"/>
      <point x="191" y="99" type="line"/>
      <point x="191" y="0" type="line"/>
      <point x="211" y="0" type="line"/>
    </contour>
    <contour>
      <point x="388" y="641"/>
      <point x="306" y="700"/>
      <point x="202" y="700" type="curve" smooth="yes"/>
      <point x="97" y="700"/>
      <point x="15" y="640"/>
      <point x="15" y="530" type="curve"/>
      <point x="35" y="530" type="line"/>
      <point x="35" y="629"/>
      <point x="108" y="680"/>
      <point x="202" y="680" type="curve" smooth="yes"/>
      <point x="295" y="680"/>
      <point x="368" y="629"/>
      <point x="368" y="530" type="curve" smooth="yes"/>
      <point x="368" y="459"/>
      <point x="332" y="411"/>
      <point x="266" y="389" type="curve" smooth="yes"/>
      <point x="222" y="374"/>
      <point x="191" y="337"/>
      <point x="191" y="290" type="curve" smooth="yes"/>
      <point x="191" y="205" type="line"/>
      <point x="211" y="205" type="line"/>
      <point x="211" y="290" type="line" smooth="yes"/>
      <point x="211" y="328"/>
      <point x="236" y="357"/>
      <point x="271" y="370" type="curve" smooth="yes"/>
      <point x="346" y="395"/>
      <point x="388" y="450"/>
      <point x="388" y="530" type="curve" smooth="yes"/>
    </contour>
  </outline>
</glyph>
<glyph name="at" format="1">
  <advance width="989"/>
  <unicode hex="0040"/>
  <outline>
    <contour>
      <point x="649" y="207"/>
      <point x="581" y="66"/>
      <point x="439" y="66" type="curve" smooth="yes"/>
      <point x="350" y="66"/>
      <point x="311" y="126"/>
      <point x="311" y="208" type="curve" smooth="yes"/>
      <point x="311" y="329"/>
      <point x="385" y="475"/>
      <point x="522" y="475" type="curve" smooth="yes"/>
      <point x="612" y="475"/>
      <point x="649" y="416"/>
      <point x="649" y="332" type="curve" smooth="yes"/>
    </contour>
    <contour>
      <point x="929" y="505"/>
      <point x="733" y="700"/>
      <point x="494" y="700" type="curve" smooth="yes"/>
      <point x="255" y="700"/>
      <point x="60" y="505"/>
      <point x="60" y="266" type="curve" smooth="yes"/>
      <point x="60" y="27"/>
      <point x="255" y="-169"/>
      <point x="494" y="-169" type="curve" smooth="yes"/>
      <point x="574" y="-169"/>
      <point x="653" y="-146"/>
      <point x="720" y="-105" type="curve"/>
      <point x="710" y="-88" type="line"/>
      <point x="645" y="-127"/>
      <point x="570" y="-149"/>
      <point x="494" y="-149" type="curve" smooth="yes"/>
      <point x="266" y="-149"/>
      <point x="80" y="38"/>
      <point x="80" y="266" type="curve" smooth="yes"/>
      <point x="80" y="494"/>
      <point x="266" y="680"/>
      <point x="494" y="680" type="curve" smooth="yes"/>
      <point x="722" y="680"/>
      <point x="909" y="494"/>
      <point x="909" y="266" type="curve" smooth="yes"/>
      <point x="909" y="153"/>
      <point x="854" y="5"/>
      <point x="720" y="5" type="curve" smooth="yes"/>
      <point x="668" y="5"/>
      <point x="631" y="37"/>
      <point x="631" y="90" type="curve" smooth="yes"/>
      <point x="631" y="100"/>
      <point x="632" y="109"/>
      <point x="634" y="118" type="curve" smooth="yes"/>
      <point x="705" y="483" type="line"/>
      <point x="685" y="487" type="line"/>
      <point x="665" y="382" type="line"/>
      <point x="650" y="455"/>
      <point x="595" y="495"/>
      <point x="522" y="495" type="curve" smooth="yes"/>
      <point x="374" y="495"/>
      <point x="291" y="341"/>
      <point x="291" y="209" type="curve" smooth="yes"/>
      <point x="291" y="115"/>
      <point x="339" y="46"/>
      <point x="439" y="46" type="curve" smooth="yes"/>
      <point x="516" y="46"/>
      <point x="581" y="90"/>
      <point x="620" y="155" type="curve"/>
      <point x="615" y="134"/>
      <point x="611" y="112"/>
      <point x="611" y="90" type="curve" smooth="yes"/>
      <point x="611" y="26"/>
      <point x="657" y="-15"/>
      <point x="720" y="-15" type="curve" smooth="yes"/>
      <point x="866" y="-15"/>
      <point x="929" y="141"/>
      <point x="929" y="266" type="curve" smooth="yes"/>
    </contour>
  </outline>
</glyph>
<glyph name="A" format="1">
  <advance width="596"/>
  <unicode hex="0041"/>
  <outline>
    <contour>
      <point x="141" y="240" type="line"/>
      <point x="298" y="661" type="line"/>
      <point x="455" y="240" type="line"/>
    </contour>
    <contour>
      <point x="308" y="690" type="line"/>
      <point x="287" y="690" type="line"/>
      <point x="30" y="0" type="line"/>
      <point x="51" y="0" type="line"/>
      <point x="133" y="220" type="line"/>
      <point x="462" y="220" type="line"/>
      <point x="544" y="0" type="line"/>
      <point x="566" y="0" type="line"/>
    </contour>
  </outline>
</glyph>
<glyph name="B" format="1">
  <advance width="638"/>
  <unicode hex="0042"/>
  <outline>
    <contour>
      <point x="563" y="74"/>
      <point x="473" y="20"/>
      <point x="378" y="20" type="curve" smooth="yes"/>
      <point x="115" y="20" type="line"/>
      <point x="115" y="335" type="line"/>
      <point x="378" y="335" type="line" smooth="yes"/>
      <point x="473" y="335"/>
      <point x="563" y="281"/>
      <point x="563" y="178" type="curve" smooth="yes"/>
    </contour>
    <contour>
      <point x="527" y="409"/>
      <point x="437" y="355"/>
      <point x="342" y="355" type="curve" smooth="yes"/>
      <point x="115" y="355" type="line"/>
      <point x="115" y="670" type="line"/>
      <point x="342" y="670" type="line" smooth="yes"/>
      <point x="437" y="670"/>
      <point x="527" y="616"/>
      <point x="527" y="513" type="curve" smooth="yes"/>
    </contour>
    <contour>
      <point x="583" y="268"/>
      <point x="517" y="333"/>
      <point x="431" y="350" type="curve"/>
      <point x="500" y="376"/>
      <point x="547" y="438"/>
      <point x="547" y="513" type="curve" smooth="yes"/>
      <point x="547" y="627"/>
      <point x="448" y="690"/>
      <point x="342" y="690" type="curve" smooth="yes"/>
      <point x="95" y="690" type="line"/>
      <point x="95" y="0" type="line"/>
      <point x="378" y="0" type="line" smooth="yes"/>
      <point x="484" y="0"/>
      <point x="583" y="63"/>
      <point x="583" y="178" type="curve" smooth="yes"/>
    </contour>
  </outline>
</glyph>
<glyph name="C" format="1">
  <advance width="685"/>
  <unicode hex="0043"/>
  <outline>
    <contour>
      <point x="617" y="176" type="line"/>
      <point x="572" y="68"/>
      <point x="481" y="10"/>
      <point x="364" y="10" type="curve" smooth="yes"/>
      <point x="169" y="10"/>
      <point x="80" y="167"/>
      <point x="80" y="345" type="curve" smooth="yes"/>
      <point x="80" y="523"/>
      <point x="169" y="680"/>
      <point x="364" y="680" type="curve" smooth="yes"/>
      <point x="481" y="680"/>
      <point x="572" y="622"/>
      <point x="617" y="514" type="curve"/>
      <point x="635" y="522" type="line"/>
      <point x="587" y="637"/>
      <point x="489" y="700"/>
      <point x="364" y="700" type="curve" smooth="yes"/>
      <point x="158" y="700"/>
      <point x="60" y="534"/>
      <point x="60" y="345" type="curve" smooth="yes"/>
      <point x="60" y="156"/>
      <point x="158" y="-10"/>
      <point x="364" y="-10" type="curve" smooth="yes"/>
      <point x="489" y="-10"/>
      <point x="587" y="53"/>
      <point x="635" y="169" type="curve"/>
    </contour>
  </outline>
</glyph>
<glyph name="E" format="1">
  <advance width="577"/>
  <unicode hex="0045"/>
  <outline>
    <contour>
      <point x="512" y="20" type="line"/>
      <point x="115" y="20" type="line"/>
      <point x="115" y="335" type="line"/>
      <point x="465" y="335" type="line"/>
      <point x="465" y="355" type="line"/>
      <point x="115" y="355" type="line"/>
      <point x="115" y="670" type="line"/>
      <point x="512" y="670" type="line"/>
      <point x="512" y="690" type="line"/>
      <point x="95" y="690" type="line"/>
      <point x="95" y="0" type="line"/>
      <point x="512" y="0" type="line"/>
    </contour>
  </outline>
</glyph>
<glyph name="F" format="1">
  <advance width="552"/>
  <unicode hex="0046"/>
  <outline>
    <contour>
      <point x="512" y="690" type="line"/>
      <point x="95" y="690" type="line"/>
      <point x="95" y="0" type="line"/>
      <point x="115" y="0" type="line"/>
      <point x="115" y="335" type="line"/>
      <point x="465" y="335" type="line"/>
      <point x="465" y="355" type="line"/>
      <point x="115" y="355" type="line"/>
      <point x="115" y="670" type="line"/>
      <point x="512" y="670" type="line"/>
    </contour>
  </outline>
</glyph>
<glyph name="G" format="1">
  <advance width="694"/>
  <unicode hex="0047"/>
  <outline>
    <contour>
      <point x="609" y="316" type="line"/>
      <point x="364" y="316" type="line"/>
      <point x="364" y="296" type="line"/>
      <point x="589" y="296" type="line"/>
      <point x="589" y="42" type="line"/>
      <point x="530" y="18"/>
      <point x="453" y="10"/>
      <point x="390" y="10" type="curve" smooth="yes"/>
      <point x="175" y="10"/>
      <point x="80" y="140"/>
      <point x="80" y="345" type="curve" smooth="yes"/>
      <point x="80" y="514"/>
      <point x="158" y="680"/>
      <point x="349" y="680" type="curve" smooth="yes"/>
      <point x="472" y="680"/>
      <point x="554" y="623"/>
      <point x="587" y="518" type="curve"/>
      <point x="606" y="526" type="line"/>
      <point x="571" y="632"/>
      <point x="483" y="700"/>
      <point x="349" y="700" type="curve" smooth="yes"/>
      <point x="147" y="700"/>
      <point x="60" y="526"/>
      <point x="60" y="345" type="curve" smooth="yes"/>
      <point x="60" y="129"/>
      <point x="164" y="-10"/>
      <point x="390" y="-10" type="curve" smooth="yes"/>
      <point x="457" y="-10"/>
      <point x="548" y="-1"/>
      <point x="609" y="30" type="curve"/>
    </contour>
  </outline>
</glyph>
<glyph name="H" format="1">
  <advance width="642"/>
  <unicode hex="0048"/>
  <outline>
    <contour>
      <point x="547" y="690" type="line"/>
      <point x="527" y="690" type="line"/>
      <point x="527" y="355" type="line"/>
      <point x="115" y="355" type="line"/>
      <point x="115" y="690" type="line"/>
      <point x="95" y="690" type="line"/>
      <point x="95" y="0" type="line"/>
      <point x="115" y="0" type="line"/>
      <point x="115" y="335" type="line"/>
      <point x="527" y="335" type="line"/>
      <point x="527" y="0" type="line"/>
      <point x="547" y="0" type="line"/>
    </contour>
  </outline>
</glyph>
<glyph name="J" format="1">
  <advance width="560"/>
  <unicode hex="004A"/>
  <outline>
    <contour>
      <point x="470" y="690" type="line"/>
      <point x="450" y="690" type="line"/>
      <point x="450" y="229" type="line" smooth="yes"/>
      <point x="450" y="100"/>
      <point x="388" y="10"/>
      <point x="251" y="10" type="curve" smooth="yes"/>
      <point x="138" y="10"/>
      <point x="69" y="72"/>
      <point x="55" y="184" type="curve"/>
      <point x="35" y="181" type="line"/>
      <point x="51" y="60"/>
      <point x="128" y="-10"/>
      <point x="251" y="-10" type="curve" smooth="yes"/>
      <point x="398" y="-10"/>
      <point x="470" y="89"/>
      <point x="470" y="229" type="curve" smooth="yes"/>
    </contour>
  </outline>
</glyph>
<glyph name="K" format="1">
  <advance width="645"/>
  <unicode hex="004B"/>
  <outline>
    <contour>
      <point x="322" y="401" type="line"/>
      <point x="596" y="690" type="line"/>
      <point x="569" y="690" type="line"/>
      <point x="115" y="211" type="line"/>
      <point x="115" y="690" type="line"/>
      <point x="95" y="690" type="line"/>
      <point x="95" y="0" type="line"/>
      <point x="115" y="0" type="line"/>
      <point x="115" y="182" type="line"/>
      <point x="308" y="386" type="line"/>
      <point x="581" y="0" type="line"/>
      <point x="605" y="0" type="line"/>
    </contour>
  </outline>
</glyph>
<glyph name="L" format="1">
  <advance width="547"/>
  <unicode hex="004C"/>
  <outline>
    <contour>
      <point x="512" y="20" type="line"/>
      <point x="115" y="20" type="line"/>
      <point x="115" y="690" type="line"/>
      <point x="95" y="690" type="line"/>
      <point x="95" y="0" type="line"/>
      <point x="512" y="0" type="line"/>
    </contour>
  </outline>
</glyph>
<glyph name="M" format="1">
  <advance width="835"/>
  <unicode hex="004D"/>
  <outline>
    <contour>
      <point x="740" y="690" type="line"/>
      <point x="719" y="690" type="line"/>
      <point x="418" y="24" type="line"/>
      <point x="116" y="690" type="line"/>
      <point x="95" y="690" type="line"/>
      <point x="95" y="0" type="line"/>
      <point x="115" y="0" type="line"/>
      <point x="115" y="644" type="line"/>
      <point x="407" y="0" type="line"/>
      <point x="428" y="0" type="line"/>
      <point x="720" y="644" type="line"/>
      <point x="720" y="0" type="line"/>
      <point x="740" y="0" type="line"/>
    </contour>
  </outline>
</glyph>
<glyph name="N" format="1">
  <advance width="652"/>
  <unicode hex="004E"/>
  <outline>
    <contour>
      <point x="557" y="690" type="line"/>
      <point x="537" y="690" type="line"/>
      <point x="537" y="34" type="line"/>
      <point x="117" y="690" type="line"/>
      <point x="95" y="690" type="line"/>
      <point x="95" y="0" type="line"/>
      <point x="115" y="0" type="line"/>
      <point x="115" y="656" type="line"/>
      <point x="535" y="0" type="line"/>
      <point x="557" y="0" type="line"/>
    </contour>
  </outline>
</glyph>
<glyph name="O" format="1">
  <advance width="728"/>
  <unicode hex="004F"/>
  <outline>
    <contour>
      <point x="648" y="167"/>
      <point x="559" y="10"/>
      <point x="364" y="10" type="curve" smooth="yes"/>
      <point x="169" y="10"/>
      <point x="80" y="167"/>
      <point x="80" y="345" type="curve" smooth="yes"/>
      <point x="80" y="523"/>
      <point x="169" y="680"/>
      <point x="364" y="680" type="curve" smooth="yes"/>
      <point x="559" y="680"/>
      <point x="648" y="523"/>
      <point x="648" y="345" type="curve" smooth="yes"/>
    </contour>
    <contour>
      <point x="668" y="534"/>
      <point x="571" y="700"/>
      <point x="364" y="700" type="curve" smooth="yes"/>
      <point x="158" y="700"/>
      <point x="60" y="534"/>
      <point x="60" y="345" type="curve" smooth="yes"/>
      <point x="60" y="156"/>
      <point x="158" y="-10"/>
      <point x="364" y="-10" type="curve" smooth="yes"/>
      <point x="571" y="-10"/>
      <point x="668" y="156"/>
      <point x="668" y="345" type="curve" smooth="yes"/>
    </contour>
  </outline>
</glyph>
<glyph name="P" format="1">
  <advance width="587"/>
  <unicode hex="0050"/>
  <outline>
    <contour>
      <point x="527" y="409"/>
      <point x="437" y="355"/>
      <point x="342" y="355" type="curve" smooth="yes"/>
      <point x="115" y="355" type="line"/>
      <point x="115" y="670" type="line"/>
      <point x="342" y="670" type="line" smooth="yes"/>
      <point x="437" y="670"/>
      <point x="527" y="616"/>
      <point x="527" y="513" type="curve" smooth="yes"/>
    </contour>
    <contour>
      <point x="547" y="628"/>
      <point x="448" y="690"/>
      <point x="342" y="690" type="curve" smooth="yes"/>
      <point x="95" y="690" type="line"/>
      <point x="95" y="680" type="line"/>
      <point x="95" y="670" type="line"/>
      <point x="95" y="355" type="line"/>
      <point x="95" y="335" type="line"/>
      <point x="95" y="0" type="line"/>
      <point x="115" y="0" type="line"/>
      <point x="115" y="335" type="line"/>
      <point x="342" y="335" type="line" smooth="yes"/>
      <point x="448" y="335"/>
      <point x="547" y="397"/>
      <point x="547" y="513" type="curve" smooth="yes"/>
    </contour>
  </outline>
</glyph>
<glyph name="Q" format="1">
  <advance width="728"/>
  <unicode hex="0051"/>
  <outline>
    <contour>
      <point x="648" y="239"/>
      <point x="616" y="123"/>
      <point x="526" y="58" type="curve"/>
      <point x="411" y="187" type="line"/>
      <point x="396" y="174" type="line"/>
      <point x="509" y="47" type="line"/>
      <point x="465" y="21"/>
      <point x="415" y="10"/>
      <point x="364" y="10" type="curve" smooth="yes"/>
      <point x="169" y="10"/>
      <point x="80" y="167"/>
      <point x="80" y="345" type="curve" smooth="yes"/>
      <point x="80" y="523"/>
      <point x="169" y="680"/>
      <point x="364" y="680" type="curve" smooth="yes"/>
      <point x="559" y="680"/>
      <point x="648" y="523"/>
      <point x="648" y="345" type="curve" smooth="yes"/>
    </contour>
    <contour>
      <point x="668" y="534"/>
      <point x="571" y="700"/>
      <point x="364" y="700" type="curve" smooth="yes"/>
      <point x="158" y="700"/>
      <point x="60" y="534"/>
      <point x="60" y="345" type="curve" smooth="yes"/>
      <point x="60" y="156"/>
      <point x="158" y="-10"/>
      <point x="364" y="-10" type="curve" smooth="yes"/>
      <point x="420" y="-10"/>
      <point x="475" y="2"/>
      <point x="522" y="32" type="curve"/>
      <point x="612" y="-69" type="line"/>
      <point x="627" y="-55" type="line"/>
      <point x="539" y="43" type="line"/>
      <point x="633" y="112"/>
      <point x="668" y="233"/>
      <point x="668" y="345" type="curve" smooth="yes"/>
    </contour>
  </outline>
</glyph>
<glyph name="R" format="1">
  <advance width="614"/>
  <unicode hex="0052"/>
  <outline>
    <contour>
      <point x="527" y="409"/>
      <point x="436" y="355"/>
      <point x="342" y="355" type="curve" smooth="yes"/>
      <point x="115" y="355" type="line"/>
      <point x="115" y="670" type="line"/>
      <point x="342" y="670" type="line" smooth="yes"/>
      <point x="437" y="670"/>
      <point x="527" y="616"/>
      <point x="527" y="513" type="curve" smooth="yes"/>
    </contour>
    <contour>
      <point x="370" y="337" type="line"/>
      <point x="465" y="347"/>
      <point x="547" y="408"/>
      <point x="547" y="513" type="curve" smooth="yes"/>
      <point x="547" y="628"/>
      <point x="448" y="690"/>
      <point x="342" y="690" type="curve" smooth="yes"/>
      <point x="95" y="690" type="line"/>
      <point x="95" y="0" type="line"/>
      <point x="115" y="0" type="line"/>
      <point x="115" y="335" type="line"/>
      <point x="342" y="335" type="line"/>
      <point x="348" y="335" type="line"/>
      <point x="543" y="0" type="line"/>
      <point x="566" y="0" type="line"/>
    </contour>
  </outline>
</glyph>
<glyph name="T" format="1">
  <advance width="582"/>
  <unicode hex="0054"/>
  <outline>
    <contour>
      <point x="552" y="690" type="line"/>
      <point x="301" y="690" type="line"/>
      <point x="281" y="690" type="line"/>
      <point x="30" y="690" type="line"/>
      <point x="30" y="670" type="line"/>
      <point x="281" y="670" type="line"/>
      <point x="281" y="0" type="line"/>
      <point x="301" y="0" type="line"/>
      <point x="301" y="670" type="line"/>
      <point x="552" y="670" type="line"/>
    </contour>
  </outline>
</glyph>
<glyph name="U" format="1">
  <advance width="704"/>
  <unicode hex="0055"/>
  <outline>
    <contour>
      <point x="614" y="690" type="line"/>
      <point x="594" y="690" type="line"/>
      <point x="594" y="277" type="line" smooth="yes"/>
      <point x="594" y="120"/>
      <point x="518" y="10"/>
      <point x="352" y="10" type="curve" smooth="yes"/>
      <point x="186" y="10"/>
      <point x="110" y="120"/>
      <point x="110" y="277" type="curve" smooth="yes"/>
      <point x="110" y="690" type="line"/>
      <point x="90" y="690" type="line"/>
      <point x="90" y="277" type="line" smooth="yes"/>
      <point x="90" y="109"/>
      <point x="175" y="-10"/>
      <point x="352" y="-10" type="curve" smooth="yes"/>
      <point x="529" y="-10"/>
      <point x="614" y="109"/>
      <point x="614" y="277" type="curve" smooth="yes"/>
    </contour>
  </outline>
</glyph>
<glyph name="V" format="1">
  <advance width="603"/>
  <unicode hex="0056"/>
  <outline>
    <contour>
      <point x="552" y="690" type="line"/>
      <point x="302" y="19" type="line"/>
      <point x="51" y="690" type="line"/>
      <point x="30" y="690" type="line"/>
      <point x="287" y="0" type="line"/>
      <point x="316" y="0" type="line"/>
      <point x="573" y="690" type="line"/>
    </contour>
  </outline>
</glyph>
<glyph name="W" format="1">
  <advance width="945"/>
  <unicode hex="0057"/>
  <outline>
    <contour>
      <point x="894" y="690" type="line"/>
      <point x="708" y="24" type="line"/>
      <point x="483" y="690" type="line"/>
      <point x="462" y="690" type="line"/>
      <point x="237" y="24" type="line"/>
      <point x="51" y="690" type="line"/>
      <point x="30" y="690" type="line"/>
      <point x="223" y="0" type="line"/>
      <point x="250" y="0" type="line"/>
      <point x="473" y="659" type="line"/>
      <point x="695" y="0" type="line"/>
      <point x="722" y="0" type="line"/>
      <point x="915" y="690" type="line"/>
    </contour>
  </outline>
</glyph>
<glyph name="X" format="1">
  <advance width="533"/>
  <unicode hex="0058"/>
  <outline>
    <contour>
      <point x="278" y="345" type="line"/>
      <point x="503" y="690" type="line"/>
      <point x="479" y="690" type="line"/>
      <point x="266" y="363" type="line"/>
      <point x="54" y="690" type="line"/>
      <point x="30" y="690" type="line"/>
      <point x="255" y="345" type="line"/>
      <point x="30" y="0" type="line"/>
      <point x="54" y="0" type="line"/>
      <point x="266" y="327" type="line"/>
      <point x="479" y="0" type="line"/>
      <point x="503" y="0" type="line"/>
    </contour>
  </outline>
</glyph>
<glyph name="Y" format="1">
  <advance width="606"/>
  <unicode hex="0059"/>
  <outline>
    <contour>
      <point x="552" y="690" type="line"/>
      <point x="303" y="289" type="line"/>
      <point x="54" y="690" type="line"/>
      <point x="30" y="690" type="line"/>
      <point x="293" y="267" type="line"/>
      <point x="293" y="-10" type="line"/>
      <point x="313" y="-10" type="line"/>
      <point x="313" y="267" type="line"/>
      <point x="576" y="690" type="line"/>
    </contour>
  </outline>
</glyph>
<glyph name="Z" format="1">
  <advance width="620"/>
  <unicode hex="005A"/>
  <outline>
    <contour>
      <point x="560" y="20" type="line"/>
      <point x="70" y="20" type="line"/>
      <point x="560" y="663" type="line"/>
      <point x="560" y="690" type="line"/>
      <point x="72" y="690" type="line"/>
      <point x="72" y="670" type="line"/>
      <point x="540" y="670" type="line"/>
      <point x="52" y="29" type="line"/>
      <point x="52" y="0" type="line"/>
      <point x="560" y="0" type="line"/>
    </contour>
  </outline>
</glyph>
<glyph name="bracketleft" format="1">
  <advance width="264"/>
  <unicode hex="005B"/>
  <outline>
    <contour>
      <point x="239" y="-134" type="line"/>
      <point x="120" y="-134" type="line"/>
      <point x="120" y="720" type="line"/>
      <point x="239" y="720" type="line"/>
      <point x="239" y="740" type="line"/>
      <point x="100" y="740" type="line"/>
      <point x="100" y="-154" type="line"/>
      <point x="239" y="-154" type="line"/>
    </contour>
  </outline>
</glyph>
<glyph name="backslash" format="1">
  <advance width="277"/>
  <unicode hex="005C"/>
  <outline>
    <contour>
      <point x="-11" y="747" type="line"/>
      <point x="-30" y="740" type="line"/>
      <point x="288" y="-134" type="line"/>
      <point x="307" y="-127" type="line"/>
    </contour>
  </outline>
</glyph>
<glyph name="bracketright" format="1">
  <advance width="264"/>
  <unicode hex="005D"/>
  <outline>
    <contour>
      <point x="164" y="740" type="line"/>
      <point x="25" y="740" type="line"/>
      <point x="25" y="720" type="line"/>
      <point x="144" y="720" type="line"/>
      <point x="144" y="-134" type="line"/>
      <point x="25" y="-134" type="line"/>
      <point x="25" y="-154" type="line"/>
      <point x="164" y="-154" type="line"/>
    </contour>
  </outline>
</glyph>
<glyph name="asciicircum" format="1">
  <advance width="298"/>
  <unicode hex="005E"/>
  <outline>
    <contour>
      <point x="160" y="690" type="line"/>
      <point x="137" y="690" type="line"/>
      <point x="30" y="395" type="line"/>
      <point x="53" y="395" type="line"/>
      <point x="149" y="669" type="line"/>
      <point x="245" y="395" type="line"/>
      <point x="268" y="395" type="line"/>
    </contour>
  </outline>
</glyph>
<glyph name="underscore" format="1">
  <advance width="375"/>
  <unicode hex="005F"/>
  <outline>
    <contour>
      <point x="355" y="0" type="line"/>
      <point x="20" y="0" type="line"/>
      <point x="20" y="-20" type="line"/>
      <point x="355" y="-20" type="line"/>
    </contour>
  </outline>
</glyph>
<glyph name="grave" format="1">
  <advance width="0"/>
  <unicode hex="0060"/>
  <outline>
    <contour>
      <point x="-98" y="690" type="line"/>
      <point x="-112" y="676" type="line"/>
      <point x="0" y="563" type="line"/>
      <point x="14" y="578" type="line"/>
    </contour>
  </outline>
</glyph>
<glyph name="b" format="1">
  <advance width="556"/>
  <unicode hex="0062"/>
  <outline>
    <contour>
      <point x="481" y="126"/>
      <point x="428" y="10"/>
      <point x="296" y="10" type="curve" smooth="yes"/>
      <point x="163" y="10"/>
      <point x="110" y="126"/>
      <point x="110" y="243" type="curve" smooth="yes"/>
      <point x="110" y="359"/>
      <point x="163" y="475"/>
      <point x="296" y="475" type="curve" smooth="yes"/>
      <point x="428" y="475"/>
      <point x="481" y="359"/>
      <point x="481" y="243" type="curve" smooth="yes"/>
    </contour>
    <contour>
      <point x="501" y="371"/>
      <point x="439" y="495"/>
      <point x="296" y="495" type="curve" smooth="yes"/>
      <point x="207" y="495"/>
      <point x="141" y="445"/>
      <point x="110" y="363" type="curve"/>
      <point x="110" y="740" type="line"/>
      <point x="90" y="740" type="line"/>
      <point x="90" y="0" type="line"/>
      <point x="110" y="0" type="line"/>
      <point x="110" y="122" type="line"/>
      <point x="141" y="40"/>
      <point x="207" y="-10"/>
      <point x="296" y="-10" type="curve" smooth="yes"/>
      <point x="440" y="-10"/>
      <point x="501" y="114"/>
      <point x="501" y="243" type="curve" smooth="yes"/>
    </contour>
  </outline>
</glyph>
<glyph name="c" format="1">
  <advance width="482"/>
  <unicode hex="0063"/>
  <outline>
    <contour>
      <point x="423" y="119" type="line"/>
      <point x="393" y="50"/>
      <point x="337" y="10"/>
      <point x="261" y="10" type="curve" smooth="yes"/>
      <point x="128" y="10"/>
      <point x="75" y="126"/>
      <point x="75" y="243" type="curve" smooth="yes"/>
      <point x="75" y="359"/>
      <point x="128" y="475"/>
      <point x="261" y="475" type="curve" smooth="yes"/>
      <point x="337" y="475"/>
      <point x="393" y="435"/>
      <point x="423" y="366" type="curve"/>
      <point x="441" y="374" type="line"/>
      <point x="408" y="451"/>
      <point x="345" y="495"/>
      <point x="261" y="495" type="curve" smooth="yes"/>
      <point x="117" y="495"/>
      <point x="55" y="371"/>
      <point x="55" y="243" type="curve" smooth="yes"/>
      <point x="55" y="114"/>
      <point x="117" y="-10"/>
      <point x="261" y="-10" type="curve" smooth="yes"/>
      <point x="345" y="-10"/>
      <point x="409" y="35"/>
      <point x="442" y="112" type="curve"/>
    </contour>
  </outline>
</glyph>
<glyph name="g" format="1">
  <advance width="556"/>
  <unicode hex="0067"/>
  <outline>
    <contour>
      <point x="446" y="126"/>
      <point x="393" y="10"/>
      <point x="261" y="10" type="curve" smooth="yes"/>
      <point x="128" y="10"/>
      <point x="75" y="126"/>
      <point x="75" y="243" type="curve" smooth="yes"/>
      <point x="75" y="359"/>
      <point x="128" y="475"/>
      <point x="261" y="475" type="curve" smooth="yes"/>
      <point x="393" y="475"/>
      <point x="446" y="359"/>
      <point x="446" y="243" type="curve" smooth="yes"/>
    </contour>
    <contour>
      <point x="466" y="485" type="line"/>
      <point x="446" y="485" type="line"/>
      <point x="446" y="362" type="line"/>
      <point x="415" y="445"/>
      <point x="350" y="495"/>
      <point x="261" y="495" type="curve" smooth="yes"/>
      <point x="116" y="495"/>
      <point x="55" y="371"/>
      <point x="55" y="243" type="curve" smooth="yes"/>
      <point x="55" y="114"/>
      <point x="116" y="-10"/>
      <point x="261" y="-10" type="curve" smooth="yes"/>
      <point x="350" y="-10"/>
      <point x="415" y="40"/>
      <point x="446" y="123" type="curve"/>
      <point x="446" y="0" type="line" smooth="yes"/>
      <point x="446" y="-104"/>
      <point x="367" y="-192"/>
      <point x="261" y="-192" type="curve" smooth="yes"/>
      <point x="178" y="-192"/>
      <point x="115" y="-160"/>
      <point x="83" y="-81" type="curve"/>
      <point x="64" y="-89" type="line"/>
      <point x="100" y="-175"/>
      <point x="170" y="-212"/>
      <point x="261" y="-212" type="curve" smooth="yes"/>
      <point x="378" y="-212"/>
      <point x="466" y="-116"/>
      <point x="466" y="0" type="curve" smooth="yes"/>
    </contour>
  </outline>
</glyph>
<glyph name="h" format="1">
  <advance width="556"/>
  <unicode hex="0068"/>
  <outline>
    <contour>
      <point x="471" y="293" type="line" smooth="yes"/>
      <point x="471" y="402"/>
      <point x="428" y="495"/>
      <point x="305" y="495" type="curve" smooth="yes"/>
      <point x="215" y="495"/>
      <point x="144" y="440"/>
      <point x="110" y="358" type="curve"/>
      <point x="110" y="740" type="line"/>
      <point x="90" y="740" type="line"/>
      <point x="90" y="0" type="line"/>
      <point x="110" y="0" type="line"/>
      <point x="110" y="282" type="line" smooth="yes"/>
      <point x="110" y="291"/>
      <point x="114" y="303"/>
      <point x="116" y="312" type="curve" smooth="yes"/>
      <point x="140" y="405"/>
      <point x="204" y="475"/>
      <point x="305" y="475" type="curve" smooth="yes"/>
      <point x="417" y="475"/>
      <point x="451" y="390"/>
      <point x="451" y="293" type="curve" smooth="yes"/>
      <point x="451" y="0" type="line"/>
      <point x="471" y="0" type="line"/>
    </contour>
  </outline>
</glyph>
<glyph name="i" format="1">
  <advance width="190"/>
  <unicode hex="0069"/>
  <outline>
    <contour>
      <point x="105" y="485" type="line"/>
      <point x="85" y="485" type="line"/>
      <point x="85" y="0" type="line"/>
      <point x="105" y="0" type="line"/>
    </contour>
    <contour>
      <point x="105" y="690" type="line"/>
      <point x="85" y="690" type="line"/>
      <point x="85" y="591" type="line"/>
      <point x="105" y="591" type="line"/>
    </contour>
  </outline>
</glyph>
<glyph name="j" format="1">
  <advance width="227"/>
  <unicode hex="006A"/>
  <outline>
    <contour>
      <point x="142" y="485" type="line"/>
      <point x="122" y="485" type="line"/>
      <point x="122" y="-96" type="line" smooth="yes"/>
      <point x="122" y="-155"/>
      <point x="105" y="-195"/>
      <point x="40" y="-195" type="curve" smooth="yes"/>
      <point x="18" y="-195"/>
      <point x="-4" y="-191"/>
      <point x="-25" y="-185" type="curve"/>
      <point x="-30" y="-205" type="line"/>
      <point x="-7" y="-211"/>
      <point x="16" y="-215"/>
      <point x="40" y="-215" type="curve" smooth="yes"/>
      <point x="116" y="-215"/>
      <point x="142" y="-166"/>
      <point x="142" y="-96" type="curve" smooth="yes"/>
    </contour>
    <contour>
      <point x="142" y="690" type="line"/>
      <point x="122" y="690" type="line"/>
      <point x="122" y="591" type="line"/>
      <point x="142" y="591" type="line"/>
    </contour>
  </outline>
</glyph>
<glyph name="k" format="1">
  <advance width="462"/>
  <unicode hex="006B"/>
  <outline>
    <contour>
      <point x="240" y="282" type="line"/>
      <point x="419" y="485" type="line"/>
      <point x="392" y="485" type="line"/>
      <point x="110" y="164" type="line"/>
      <point x="110" y="740" type="line"/>
      <point x="90" y="740" type="line"/>
      <point x="90" y="0" type="line"/>
      <point x="110" y="0" type="line"/>
      <point x="110" y="134" type="line"/>
      <point x="226" y="266" type="line"/>
      <point x="417" y="0" type="line"/>
      <point x="442" y="0" type="line"/>
    </contour>
  </outline>
</glyph>
<glyph name="m" format="1">
  <advance width="876"/>
  <unicode hex="006D"/>
  <outline>
    <contour>
      <point x="791" y="293" type="line" smooth="yes"/>
      <point x="791" y="396"/>
      <point x="754" y="495"/>
      <point x="634" y="495" type="curve" smooth="yes"/>
      <point x="543" y="495"/>
      <point x="470" y="432"/>
      <point x="447" y="351" type="curve"/>
      <point x="433" y="436"/>
      <point x="385" y="495"/>
      <point x="294" y="495" type="curve" smooth="yes"/>
      <point x="207" y="495"/>
      <point x="137" y="432"/>
      <point x="110" y="360" type="curve"/>
      <point x="110" y="485" type="line"/>
      <point x="90" y="485" type="line"/>
      <point x="90" y="0" type="line"/>
      <point x="110" y="0" type="line"/>
      <point x="110" y="282" type="line" smooth="yes"/>
      <point x="110" y="378"/>
      <point x="197" y="475"/>
      <point x="294" y="475" type="curve" smooth="yes"/>
      <point x="404" y="475"/>
      <point x="431" y="381"/>
      <point x="431" y="289" type="curve" smooth="yes"/>
      <point x="431" y="0" type="line"/>
      <point x="451" y="0" type="line"/>
      <point x="451" y="286" type="line" smooth="yes"/>
      <point x="451" y="379"/>
      <point x="535" y="475"/>
      <point x="634" y="475" type="curve" smooth="yes"/>
      <point x="742" y="475"/>
      <point x="771" y="384"/>
      <point x="771" y="293" type="curve" smooth="yes"/>
      <point x="771" y="0" type="line"/>
      <point x="791" y="0" type="line"/>
    </contour>
  </outline>
</glyph>
<glyph name="o" format="1">
  <advance width="521"/>
  <unicode hex="006F"/>
  <outline>
    <contour>
      <point x="446" y="126"/>
      <point x="393" y="10"/>
      <point x="261" y="10" type="curve" smooth="yes"/>
      <point x="128" y="10"/>
      <point x="75" y="126"/>
      <point x="75" y="243" type="curve" smooth="yes"/>
      <point x="75" y="359"/>
      <point x="128" y="475"/>
      <point x="261" y="475" type="curve" smooth="yes"/>
      <point x="393" y="475"/>
      <point x="446" y="359"/>
      <point x="446" y="243" type="curve" smooth="yes"/>
    </contour>
    <contour>
      <point x="466" y="371"/>
      <point x="405" y="495"/>
      <point x="261" y="495" type="curve" smooth="yes"/>
      <point x="116" y="495"/>
      <point x="55" y="371"/>
      <point x="55" y="243" type="curve" smooth="yes"/>
      <point x="55" y="114"/>
      <point x="116" y="-10"/>
      <point x="261" y="-10" type="curve" smooth="yes"/>
      <point x="405" y="-10"/>
      <point x="466" y="114"/>
      <point x="466" y="243" type="curve" smooth="yes"/>
    </contour>
  </outline>
</glyph>
<glyph name="q" format="1">
  <advance width="556"/>
  <unicode hex="0071"/>
  <outline>
    <contour>
      <point x="446" y="126"/>
      <point x="393" y="10"/>
      <point x="261" y="10" type="curve" smooth="yes"/>
      <point x="128" y="10"/>
      <point x="75" y="126"/>
      <point x="75" y="243" type="curve" smooth="yes"/>
      <point x="75" y="359"/>
      <point x="128" y="475"/>
      <point x="261" y="475" type="curve" smooth="yes"/>
      <point x="393" y="475"/>
      <point x="446" y="359"/>
      <point x="446" y="243" type="curve" smooth="yes"/>
    </contour>
    <contour>
      <point x="466" y="485" type="line"/>
      <point x="446" y="485" type="line"/>
      <point x="446" y="362" type="line"/>
      <point x="415" y="445"/>
      <point x="350" y="495"/>
      <point x="261" y="495" type="curve" smooth="yes"/>
      <point x="116" y="495"/>
      <point x="55" y="371"/>
      <point x="55" y="243" type="curve" smooth="yes"/>
      <point x="55" y="114"/>
      <point x="116" y="-10"/>
      <point x="261" y="-10" type="curve" smooth="yes"/>
      <point x="350" y="-10"/>
      <point x="415" y="40"/>
      <point x="446" y="123" type="curve"/>
      <point x="446" y="-216" type="line"/>
      <point x="466" y="-216" type="line"/>
    </contour>
  </outline>
</glyph>
<glyph name="r" format="1">
  <advance width="382"/>
  <unicode hex="0072"/>
  <outline>
    <contour>
      <point x="343" y="493"/>
      <point x="324" y="495"/>
      <point x="305" y="495" type="curve" smooth="yes"/>
      <point x="212" y="495"/>
      <point x="144" y="441"/>
      <point x="110" y="357" type="curve"/>
      <point x="110" y="485" type="line"/>
      <point x="90" y="485" type="line"/>
      <point x="90" y="0" type="line"/>
      <point x="110" y="0" type="line"/>
      <point x="110" y="94"/>
      <point x="109" y="188"/>
      <point x="110" y="282" type="curve" smooth="yes"/>
      <point x="110" y="298"/>
      <point x="118" y="321"/>
      <point x="124" y="336" type="curve"/>
      <point x="153" y="419"/>
      <point x="215" y="475"/>
      <point x="305" y="475" type="curve" smooth="yes"/>
      <point x="322" y="475"/>
      <point x="339" y="473"/>
      <point x="356" y="468" type="curve"/>
      <point x="362" y="487" type="line"/>
    </contour>
  </outline>
</glyph>
<glyph name="t" format="1">
  <advance width="348"/>
  <unicode hex="0074"/>
  <outline>
    <contour>
      <point x="304" y="20" type="line"/>
      <point x="282" y="14"/>
      <point x="261" y="10"/>
      <point x="239" y="10" type="curve" smooth="yes"/>
      <point x="174" y="10"/>
      <point x="156" y="50"/>
      <point x="156" y="109" type="curve" smooth="yes"/>
      <point x="156" y="465" type="line"/>
      <point x="302" y="465" type="line"/>
      <point x="302" y="485" type="line"/>
      <point x="156" y="485" type="line"/>
      <point x="156" y="620" type="line"/>
      <point x="136" y="620" type="line"/>
      <point x="136" y="485" type="line"/>
      <point x="20" y="485" type="line"/>
      <point x="20" y="465" type="line"/>
      <point x="136" y="465" type="line"/>
      <point x="136" y="109" type="line" smooth="yes"/>
      <point x="136" y="39"/>
      <point x="162" y="-10"/>
      <point x="238" y="-10" type="curve" smooth="yes"/>
      <point x="262" y="-10"/>
      <point x="286" y="-6"/>
      <point x="308" y="0" type="curve"/>
    </contour>
  </outline>
</glyph>
<glyph name="v" format="1">
  <advance width="430"/>
  <unicode hex="0076"/>
  <outline>
    <contour>
      <point x="389" y="485" type="line"/>
      <point x="215" y="19" type="line"/>
      <point x="41" y="485" type="line"/>
      <point x="20" y="485" type="line"/>
      <point x="201" y="0" type="line"/>
      <point x="230" y="0" type="line"/>
      <point x="410" y="485" type="line"/>
    </contour>
  </outline>
</glyph>
<glyph name="w" format="1">
  <advance width="690"/>
  <unicode hex="0077"/>
  <outline>
    <contour>
      <point x="644" y="485" type="line"/>
      <point x="515" y="24" type="line"/>
      <point x="359" y="485" type="line"/>
      <point x="330" y="485" type="line"/>
      <point x="175" y="24" type="line"/>
      <point x="46" y="485" type="line"/>
      <point x="25" y="485" type="line"/>
      <point x="161" y="0" type="line"/>
      <point x="188" y="0" type="line"/>
      <point x="345" y="465" type="line"/>
      <point x="502" y="0" type="line"/>
      <point x="529" y="0" type="line"/>
      <point x="665" y="485" type="line"/>
    </contour>
  </outline>
</glyph>
<glyph name="x" format="1">
  <advance width="390"/>
  <unicode hex="0078"/>
  <outline>
    <contour>
      <point x="207" y="243" type="line"/>
      <point x="364" y="485" type="line"/>
      <point x="341" y="485" type="line"/>
      <point x="195" y="261" type="line"/>
      <point x="49" y="485" type="line"/>
      <point x="25" y="485" type="line"/>
      <point x="183" y="243" type="line"/>
      <point x="25" y="0" type="line"/>
      <point x="49" y="0" type="line"/>
      <point x="195" y="224" type="line"/>
      <point x="341" y="0" type="line"/>
      <point x="365" y="0" type="line"/>
    </contour>
  </outline>
</glyph>
<glyph name="y" format="1">
  <advance width="430"/>
  <unicode hex="0079"/>
  <outline>
    <contour>
      <point x="389" y="485" type="line"/>
      <point x="215" y="18" type="line"/>
      <point x="41" y="485" type="line"/>
      <point x="20" y="485" type="line"/>
      <point x="205" y="-10" type="line"/>
      <point x="129" y="-213" type="line"/>
      <point x="151" y="-213" type="line"/>
      <point x="410" y="485" type="line"/>
    </contour>
  </outline>
</glyph>
<glyph name="z" format="1">
  <advance width="492"/>
  <unicode hex="007A"/>
  <outline>
    <contour>
      <point x="71" y="485" type="line"/>
      <point x="71" y="465" type="line"/>
      <point x="407" y="465" type="line"/>
      <point x="45" y="0" type="line"/>
      <point x="436" y="0" type="line"/>
      <point x="436" y="20" type="line"/>
      <point x="86" y="20" type="line"/>
      <point x="447" y="485" type="line"/>
    </contour>
  </outline>
</glyph>
<glyph name="braceleft" format="1">
  <advance width="254"/>
  <unicode hex="007B"/>
  <outline>
    <contour>
      <point x="234" y="-134" type="line"/>
      <point x="164" y="-134"/>
      <point x="106" y="-77"/>
      <point x="106" y="-6" type="curve" smooth="yes"/>
      <point x="106" y="1"/>
      <point x="107" y="9"/>
      <point x="108" y="17" type="curve"/>
      <point x="132" y="147" type="line"/>
      <point x="133" y="156"/>
      <point x="134" y="164"/>
      <point x="134" y="173" type="curve" smooth="yes"/>
      <point x="134" y="220"/>
      <point x="111" y="265"/>
      <point x="73" y="293" type="curve"/>
      <point x="111" y="321"/>
      <point x="134" y="366"/>
      <point x="134" y="413" type="curve" smooth="yes"/>
      <point x="134" y="422"/>
      <point x="133" y="430"/>
      <point x="132" y="439" type="curve"/>
      <point x="108" y="569" type="line"/>
      <point x="107" y="577"/>
      <point x="106" y="584"/>
      <point x="106" y="592" type="curve" smooth="yes"/>
      <point x="106" y="663"/>
      <point x="164" y="720"/>
      <point x="234" y="720" type="curve"/>
      <point x="234" y="740" type="line"/>
      <point x="153" y="740"/>
      <point x="86" y="674"/>
      <point x="86" y="592" type="curve" smooth="yes"/>
      <point x="86" y="583"/>
      <point x="87" y="574"/>
      <point x="89" y="566" type="curve"/>
      <point x="112" y="435" type="line" smooth="yes"/>
      <point x="113" y="428"/>
      <point x="114" y="420"/>
      <point x="114" y="413" type="curve" smooth="yes"/>
      <point x="114" y="367"/>
      <point x="89" y="324"/>
      <point x="50" y="302" type="curve"/>
      <point x="50" y="284" type="line"/>
      <point x="89" y="261"/>
      <point x="114" y="219"/>
      <point x="114" y="173" type="curve" smooth="yes"/>
      <point x="114" y="165"/>
      <point x="113" y="158"/>
      <point x="112" y="150" type="curve"/>
      <point x="89" y="20" type="line"/>
      <point x="87" y="11"/>
      <point x="86" y="3"/>
      <point x="86" y="-6" type="curve" smooth="yes"/>
      <point x="86" y="-88"/>
      <point x="153" y="-154"/>
      <point x="234" y="-154" type="curve"/>
    </contour>
  </outline>
</glyph>
<glyph name="bar" format="1">
  <advance width="200"/>
  <unicode hex="007C"/>
  <outline>
    <contour>
      <point x="110" y="740" type="line"/>
      <point x="90" y="740" type="line"/>
      <point x="90" y="-190" type="line"/>
      <point x="110" y="-190" type="line"/>
    </contour>
  </outline>
</glyph>
<glyph name="braceright" format="1">
  <advance width="254"/>
  <unicode hex="007D"/>
  <outline>
    <contour>
      <point x="204" y="302" type="line"/>
      <point x="165" y="324"/>
      <point x="140" y="367"/>
      <point x="140" y="413" type="curve" smooth="yes"/>
      <point x="140" y="420"/>
      <point x="141" y="428"/>
      <point x="142" y="435" type="curve"/>
      <point x="166" y="566" type="line"/>
      <point x="167" y="574"/>
      <point x="168" y="583"/>
      <point x="168" y="592" type="curve" smooth="yes"/>
      <point x="168" y="674"/>
      <point x="102" y="740"/>
      <point x="20" y="740" type="curve"/>
      <point x="20" y="720" type="line"/>
      <point x="90" y="720"/>
      <point x="148" y="663"/>
      <point x="148" y="592" type="curve" smooth="yes"/>
      <point x="148" y="584"/>
      <point x="147" y="577"/>
      <point x="146" y="569" type="curve"/>
      <point x="123" y="439" type="line"/>
      <point x="121" y="430"/>
      <point x="120" y="422"/>
      <point x="120" y="413" type="curve" smooth="yes"/>
      <point x="120" y="366"/>
      <point x="143" y="321"/>
      <point x="181" y="293" type="curve"/>
      <point x="143" y="265"/>
      <point x="120" y="220"/>
      <point x="120" y="173" type="curve" smooth="yes"/>
      <point x="120" y="164"/>
      <point x="121" y="156"/>
      <point x="123" y="147" type="curve"/>
      <point x="146" y="17" type="line"/>
      <point x="147" y="9"/>
      <point x="148" y="1"/>
      <point x="148" y="-6" type="curve" smooth="yes"/>
      <point x="148" y="-77"/>
      <point x="90" y="-134"/>
      <point x="20" y="-134" type="curve"/>
      <point x="20" y="-154" type="line"/>
      <point x="102" y="-154"/>
      <point x="168" y="-88"/>
      <point x="168" y="-6" type="curve" smooth="yes"/>
      <point x="168" y="3"/>
      <point x="167" y="11"/>
      <point x="166" y="20" type="curve"/>
      <point x="142" y="150" type="line"/>
      <point x="141" y="158"/>
      <point x="140" y="165"/>
      <point x="140" y="173" type="curve" smooth="yes"/>
      <point x="140" y="219"/>
      <point x="165" y="261"/>
      <point x="204" y="284" type="curve"/>
    </contour>
  </outline>
</glyph>
<glyph name="asciitilde" format="1">
  <advance width="403"/>
  <unicode hex="007E"/>
  <outline>
    <contour>
      <point x="328" y="293" type="line"/>
      <point x="324" y="264"/>
      <point x="310" y="225"/>
      <point x="275" y="225" type="curve" smooth="yes"/>
      <point x="221" y="225"/>
      <point x="190" y="296"/>
      <point x="128" y="296" type="curve" smooth="yes"/>
      <point x="81" y="296"/>
      <point x="60" y="250"/>
      <point x="55" y="210" type="curve"/>
      <point x="75" y="207" type="line"/>
      <point x="78" y="237"/>
      <point x="92" y="276"/>
      <point x="128" y="276" type="curve" smooth="yes"/>
      <point x="181" y="276"/>
      <point x="212" y="205"/>
      <point x="274" y="205" type="curve" smooth="yes"/>
      <point x="322" y="205"/>
      <point x="343" y="250"/>
      <point x="348" y="291" type="curve"/>
    </contour>
  </outline>
</glyph>
<glyph name="cent" format="1">
  <advance width="482"/>
  <unicode hex="00A2"/>
  <outline>
    <contour>
      <point x="125" y="16"/>
      <point x="75" y="129"/>
      <point x="75" y="243" type="curve" smooth="yes"/>
      <point x="75" y="356"/>
      <point x="125" y="469"/>
      <point x="250" y="475" type="curve"/>
      <point x="250" y="10" type="line"/>
    </contour>
    <contour>
      <point x="423" y="119" type="line"/>
      <point x="395" y="53"/>
      <point x="342" y="13"/>
      <point x="270" y="10" type="curve"/>
      <point x="270" y="475" type="line"/>
      <point x="342" y="472"/>
      <point x="395" y="433"/>
      <point x="423" y="366" type="curve"/>
      <point x="441" y="374" type="line"/>
      <point x="410" y="448"/>
      <point x="350" y="492"/>
      <point x="270" y="495" type="curve"/>
      <point x="270" y="590" type="line"/>
      <point x="250" y="590" type="line"/>
      <point x="250" y="495" type="line"/>
      <point x="114" y="489"/>
      <point x="55" y="368"/>
      <point x="55" y="243" type="curve" smooth="yes"/>
      <point x="55" y="117"/>
      <point x="114" y="-4"/>
      <point x="250" y="-10" type="curve"/>
      <point x="250" y="-100" type="line"/>
      <point x="270" y="-100" type="line"/>
      <point x="270" y="-10" type="line"/>
      <point x="350" y="-7"/>
      <point x="410" y="37"/>
      <point x="442" y="112" type="curve"/>
    </contour>
  </outline>
</glyph>
<glyph name="sterling" format="1">
  <advance width="547"/>
  <unicode hex="00A3"/>
  <outline>
    <contour>
      <point x="502" y="20" type="line"/>
      <point x="70" y="20" type="line"/>
      <point x="117" y="72"/>
      <point x="183" y="130"/>
      <point x="183" y="205" type="curve" smooth="yes"/>
      <point x="183" y="241"/>
      <point x="176" y="276"/>
      <point x="167" y="311" type="curve"/>
      <point x="387" y="311" type="line"/>
      <point x="387" y="331" type="line"/>
      <point x="162" y="331" type="line"/>
      <point x="147" y="386"/>
      <point x="131" y="450"/>
      <point x="131" y="508" type="curve" smooth="yes"/>
      <point x="131" y="597"/>
      <point x="184" y="680"/>
      <point x="281" y="680" type="curve" smooth="yes"/>
      <point x="350" y="680"/>
      <point x="400" y="631"/>
      <point x="423" y="568" type="curve"/>
      <point x="442" y="575" type="line"/>
      <point x="416" y="646"/>
      <point x="359" y="700"/>
      <point x="281" y="700" type="curve" smooth="yes"/>
      <point x="173" y="700"/>
      <point x="111" y="609"/>
      <point x="111" y="508" type="curve" smooth="yes"/>
      <point x="111" y="450"/>
      <point x="126" y="386"/>
      <point x="140" y="331" type="curve"/>
      <point x="45" y="331" type="line"/>
      <point x="45" y="311" type="line"/>
      <point x="145" y="311" type="line"/>
      <point x="154" y="276"/>
      <point x="163" y="241"/>
      <point x="163" y="205" type="curve" smooth="yes"/>
      <point x="163" y="143"/>
      <point x="96" y="74"/>
      <point x="45" y="25" type="curve"/>
      <point x="45" y="0" type="line"/>
      <point x="502" y="0" type="line"/>
    </contour>
  </outline>
</glyph>
<glyph name="yen" format="1">
  <advance width="606"/>
  <unicode hex="00A5"/>
  <outline>
    <contour>
      <point x="552" y="690" type="line"/>
      <point x="303" y="289" type="line"/>
      <point x="54" y="690" type="line"/>
      <point x="30" y="690" type="line"/>
      <point x="293" y="267" type="line"/>
      <point x="293" y="253" type="line"/>
      <point x="155" y="253" type="line"/>
      <point x="155" y="233" type="line"/>
      <point x="293" y="233" type="line"/>
      <point x="293" y="113" type="line"/>
      <point x="155" y="113" type="line"/>
      <point x="155" y="93" type="line"/>
      <point x="293" y="93" type="line"/>
      <point x="293" y="-10" type="line"/>
      <point x="313" y="-10" type="line"/>
      <point x="313" y="93" type="line"/>
      <point x="450" y="93" type="line"/>
      <point x="450" y="113" type="line"/>
      <point x="313" y="113" type="line"/>
      <point x="313" y="233" type="line"/>
      <point x="450" y="233" type="line"/>
      <point x="450" y="253" type="line"/>
      <point x="313" y="253" type="line"/>
      <point x="313" y="267" type="line"/>
      <point x="576" y="690" type="line"/>
    </contour>
  </outline>
</glyph>
<glyph name="section" format="1">
  <advance width="448"/>
  <unicode hex="00A7"/>
  <outline>
    <contour>
      <point x="373" y="284"/>
      <point x="346" y="249"/>
      <point x="297" y="234" type="curve"/>
      <point x="229" y="255"/>
      <point x="101" y="257"/>
      <point x="101" y="353" type="curve" smooth="yes"/>
      <point x="101" y="403"/>
      <point x="132" y="443"/>
      <point x="179" y="458" type="curve"/>
      <point x="249" y="438"/>
      <point x="373" y="435"/>
      <point x="373" y="336" type="curve" smooth="yes"/>
    </contour>
    <contour>
      <point x="393" y="171"/>
      <point x="370" y="203"/>
      <point x="325" y="223" type="curve"/>
      <point x="371" y="245"/>
      <point x="393" y="286"/>
      <point x="393" y="336" type="curve" smooth="yes"/>
      <point x="393" y="515"/>
      <point x="101" y="416"/>
      <point x="101" y="568" type="curve" smooth="yes"/>
      <point x="101" y="640"/>
      <point x="160" y="680"/>
      <point x="227" y="680" type="curve" smooth="yes"/>
      <point x="294" y="680"/>
      <point x="346" y="648"/>
      <point x="365" y="582" type="curve"/>
      <point x="384" y="588" type="line"/>
      <point x="362" y="662"/>
      <point x="303" y="700"/>
      <point x="227" y="700" type="curve" smooth="yes"/>
      <point x="148" y="700"/>
      <point x="81" y="651"/>
      <point x="81" y="568" type="curve" smooth="yes"/>
      <point x="81" y="518"/>
      <point x="106" y="487"/>
      <point x="151" y="468" type="curve"/>
      <point x="107" y="446"/>
      <point x="81" y="402"/>
      <point x="81" y="353" type="curve" smooth="yes"/>
      <point x="81" y="179"/>
      <point x="373" y="279"/>
      <point x="373" y="121" type="curve" smooth="yes"/>
      <point x="373" y="38"/>
      <point x="306" y="10"/>
      <point x="234" y="10" type="curve" smooth="yes"/>
      <point x="156" y="10"/>
      <point x="98" y="43"/>
      <point x="74" y="120" type="curve"/>
      <point x="55" y="114" type="line"/>
      <point x="82" y="28"/>
      <point x="147" y="-10"/>
      <point x="234" y="-10" type="curve" smooth="yes"/>
      <point x="318" y="-10"/>
      <point x="393" y="26"/>
      <point x="393" y="121" type="curve" smooth="yes"/>
    </contour>
  </outline>
</glyph>
<glyph name="dieresis" format="1">
  <advance width="340"/>
  <unicode hex="00A8"/>
  <outline>
    <contour>
      <point x="105" y="690" type="line"/>
      <point x="85" y="690" type="line"/>
      <point x="85" y="591" type="line"/>
      <point x="105" y="591" type="line"/>
    </contour>
    <contour>
      <point x="255" y="690" type="line"/>
      <point x="235" y="690" type="line"/>
      <point x="235" y="591" type="line"/>
      <point x="255" y="591" type="line"/>
    </contour>
  </outline>
</glyph>
<glyph name="copyright" format="1">
  <advance width="830"/>
  <unicode hex="00A9"/>
  <outline>
    <contour>
      <point x="544" y="263" type="line"/>
      <point x="522" y="211"/>
      <point x="479" y="183"/>
      <point x="423" y="183" type="curve" smooth="yes"/>
      <point x="328" y="183"/>
      <point x="286" y="259"/>
      <point x="286" y="345" type="curve" smooth="yes"/>
      <point x="286" y="431"/>
      <point x="328" y="507"/>
      <point x="423" y="507" type="curve" smooth="yes"/>
      <point x="479" y="507"/>
      <point x="522" y="479"/>
      <point x="544" y="427" type="curve"/>
      <point x="563" y="435" type="line"/>
      <point x="537" y="495"/>
      <point x="487" y="527"/>
      <point x="423" y="527" type="curve" smooth="yes"/>
      <point x="317" y="527"/>
      <point x="266" y="442"/>
      <point x="266" y="345" type="curve" smooth="yes"/>
      <point x="266" y="248"/>
      <point x="317" y="163"/>
      <point x="423" y="163" type="curve" smooth="yes"/>
      <point x="487" y="163"/>
      <point x="538" y="196"/>
      <point x="563" y="255" type="curve"/>
    </contour>
    <contour>
      <point x="750" y="160"/>
      <point x="600" y="10"/>
      <point x="415" y="10" type="curve" smooth="yes"/>
      <point x="230" y="10"/>
      <point x="80" y="160"/>
      <point x="80" y="345" type="curve" smooth="yes"/>
      <point x="80" y="530"/>
      <point x="230" y="680"/>
      <point x="415" y="680" type="curve" smooth="yes"/>
      <point x="600" y="680"/>
      <point x="750" y="530"/>
      <point x="750" y="345" type="curve" smooth="yes"/>
    </contour>
    <contour>
      <point x="770" y="541"/>
      <point x="611" y="700"/>
      <point x="415" y="700" type="curve" smooth="yes"/>
      <point x="219" y="700"/>
      <point x="60" y="541"/>
      <point x="60" y="345" type="curve" smooth="yes"/>
      <point x="60" y="149"/>
      <point x="219" y="-10"/>
      <point x="415" y="-10" type="curve" smooth="yes"/>
      <point x="611" y="-10"/>
      <point x="770" y="149"/>
      <point x="770" y="345" type="curve" smooth="yes"/>
    </contour>
  </outline>
</glyph>
<glyph name="registered" format="1">
  <advance width="830"/>
  <unicode hex="00AE"/>
  <outline>
    <contour>
      <point x="546" y="377"/>
      <point x="499" y="350"/>
      <point x="451" y="350" type="curve" smooth="yes"/>
      <point x="334" y="350" type="line"/>
      <point x="334" y="510" type="line"/>
      <point x="451" y="510" type="line" smooth="yes"/>
      <point x="499" y="510"/>
      <point x="546" y="483"/>
      <point x="546" y="430" type="curve" smooth="yes"/>
    </contour>
    <contour>
      <point x="474" y="332" type="line"/>
      <point x="525" y="340"/>
      <point x="566" y="376"/>
      <point x="566" y="430" type="curve" smooth="yes"/>
      <point x="566" y="494"/>
      <point x="510" y="530"/>
      <point x="451" y="530" type="curve" smooth="yes"/>
      <point x="314" y="530" type="line"/>
      <point x="314" y="155" type="line"/>
      <point x="334" y="155" type="line"/>
      <point x="334" y="330" type="line"/>
      <point x="452" y="330" type="line"/>
      <point x="554" y="155" type="line"/>
      <point x="577" y="155" type="line"/>
    </contour>
    <contour>
      <point x="750" y="160"/>
      <point x="600" y="10"/>
      <point x="415" y="10" type="curve" smooth="yes"/>
      <point x="230" y="10"/>
      <point x="80" y="160"/>
      <point x="80" y="345" type="curve" smooth="yes"/>
      <point x="80" y="530"/>
      <point x="230" y="680"/>
      <point x="415" y="680" type="curve" smooth="yes"/>
      <point x="600" y="680"/>
      <point x="750" y="530"/>
      <point x="750" y="345" type="curve" smooth="yes"/>
    </contour>
    <contour>
      <point x="770" y="541"/>
      <point x="611" y="700"/>
      <point x="415" y="700" type="curve" smooth="yes"/>
      <point x="219" y="700"/>
      <point x="60" y="541"/>
      <point x="60" y="345" type="curve" smooth="yes"/>
      <point x="60" y="149"/>
      <point x="219" y="-10"/>
      <point x="415" y="-10" type="curve" smooth="yes"/>
      <point x="611" y="-10"/>
      <point x="770" y="149"/>
      <point x="770" y="345" type="curve" smooth="yes"/>
    </contour>
  </outline>
</glyph>
<glyph name="acute" format="1">
  <advance width="0"/>
  <unicode hex="00B4"/>
  <outline>
    <contour>
      <point x="98" y="690" type="line"/>
      <point x="-14" y="578" type="line"/>
      <point x="0" y="563" type="line"/>
      <point x="112" y="676" type="line"/>
    </contour>
  </outline>
</glyph>
<glyph name="cedilla" format="1">
  <advance width="0"/>
  <unicode hex="00B8"/>
  <outline>
    <contour>
      <point x="52" y="-48"/>
      <point x="17" y="-38"/>
      <point x="-8" y="-37" type="curve"/>
      <point x="17" y="7" type="line"/>
      <point x="-6" y="7" type="line"/>
      <point x="-44" y="-60" type="line"/>
      <point x="-32" y="-59"/>
      <point x="-21" y="-57"/>
      <point x="-10" y="-57" type="curve" smooth="yes"/>
      <point x="4" y="-57"/>
      <point x="32" y="-61"/>
      <point x="32" y="-80" type="curve" smooth="yes"/>
      <point x="32" y="-99"/>
      <point x="5" y="-106"/>
      <point x="-10" y="-106" type="curve" smooth="yes"/>
      <point x="-26" y="-106"/>
      <point x="-41" y="-102"/>
      <point x="-54" y="-96" type="curve"/>
      <point x="-62" y="-114" type="line"/>
      <point x="-46" y="-121"/>
      <point x="-28" y="-126"/>
      <point x="-10" y="-126" type="curve" smooth="yes"/>
      <point x="17" y="-126"/>
      <point x="52" y="-111"/>
      <point x="52" y="-79" type="curve" smooth="yes"/>
    </contour>
  </outline>
</glyph>
<glyph name="Aacute" format="1">
  <advance width="596"/>
  <unicode hex="00C1"/>
  <outline>
    <contour>
      <point x="141" y="240" type="line"/>
      <point x="298" y="661" type="line"/>
      <point x="455" y="240" type="line"/>
    </contour>
    <contour>
      <point x="308" y="690" type="line"/>
      <point x="287" y="690" type="line"/>
      <point x="30" y="0" type="line"/>
      <point x="51" y="0" type="line"/>
      <point x="133" y="220" type="line"/>
      <point x="462" y="220" type="line"/>
      <point x="544" y="0" type="line"/>
      <point x="566" y="0" type="line"/>
    </contour>
    <contour>
      <point x="398" y="870" type="line"/>
      <point x="285" y="758" type="line"/>
      <point x="299" y="743" type="line"/>
      <point x="412" y="856" type="line"/>
    </contour>
  </outline>
</glyph>
<glyph name="Acircumflex" format="1">
  <advance width="596"/>
  <unicode hex="00C2"/>
  <outline>
    <contour>
      <point x="141" y="240" type="line"/>
      <point x="298" y="661" type="line"/>
      <point x="455" y="240" type="line"/>
    </contour>
    <contour>
      <point x="308" y="690" type="line"/>
      <point x="287" y="690" type="line"/>
      <point x="30" y="0" type="line"/>
      <point x="51" y="0" type="line"/>
      <point x="133" y="220" type="line"/>
      <point x="462" y="220" type="line"/>
      <point x="544" y="0" type="line"/>
      <point x="566" y="0" type="line"/>
    </contour>
    <contour>
      <point x="298" y="870" type="line"/>
      <point x="185" y="758" type="line"/>
      <point x="200" y="743" type="line"/>
      <point x="298" y="842" type="line"/>
      <point x="396" y="743" type="line"/>
      <point x="410" y="758" type="line"/>
    </contour>
  </outline>
</glyph>
<glyph name="Atilde" format="1">
  <advance width="596"/>
  <unicode hex="00C3"/>
  <outline>
    <contour>
      <point x="141" y="240" type="line"/>
      <point x="298" y="661" type="line"/>
      <point x="455" y="240" type="line"/>
    </contour>
    <contour>
      <point x="308" y="690" type="line"/>
      <point x="287" y="690" type="line"/>
      <point x="30" y="0" type="line"/>
      <point x="51" y="0" type="line"/>
      <point x="133" y="220" type="line"/>
      <point x="462" y="220" type="line"/>
      <point x="544" y="0" type="line"/>
      <point x="566" y="0" type="line"/>
    </contour>
    <contour>
      <point x="424" y="835" type="line"/>
      <point x="421" y="806"/>
      <point x="407" y="767"/>
      <point x="371" y="767" type="curve" smooth="yes"/>
      <point x="317" y="767"/>
      <point x="287" y="838"/>
      <point x="224" y="838" type="curve" smooth="yes"/>
      <point x="177" y="838"/>
      <point x="156" y="792"/>
      <point x="151" y="752" type="curve"/>
      <point x="171" y="749" type="line"/>
      <point x="175" y="779"/>
      <point x="189" y="818"/>
      <point x="224" y="818" type="curve" smooth="yes"/>
      <point x="278" y="818"/>
      <point x="309" y="747"/>
      <point x="371" y="747" type="curve" smooth="yes"/>
      <point x="418" y="747"/>
      <point x="439" y="792"/>
      <point x="444" y="833" type="curve"/>
    </contour>
  </outline>
</glyph>
<glyph name="Adieresis" format="1">
  <advance width="596"/>
  <unicode hex="00C4"/>
  <outline>
    <contour>
      <point x="141" y="240" type="line"/>
      <point x="298" y="661" type="line"/>
      <point x="455" y="240" type="line"/>
    </contour>
    <contour>
      <point x="308" y="690" type="line"/>
      <point x="287" y="690" type="line"/>
      <point x="30" y="0" type="line"/>
      <point x="51" y="0" type="line"/>
      <point x="133" y="220" type="line"/>
      <point x="462" y="220" type="line"/>
      <point x="544" y="0" type="line"/>
      <point x="566" y="0" type="line"/>
    </contour>
    <contour>
      <point x="233" y="850" type="line"/>
      <point x="213" y="850" type="line"/>
      <point x="213" y="751" type="line"/>
      <point x="233" y="751" type="line"/>
    </contour>
    <contour>
      <point x="383" y="850" type="line"/>
      <point x="363" y="850" type="line"/>
      <point x="363" y="751" type="line"/>
      <point x="383" y="751" type="line"/>
    </contour>
  </outline>
</glyph>
<glyph name="Aring" format="1">
  <advance width="596"/>
  <unicode hex="00C5"/>
  <outline>
    <contour>
      <point x="141" y="240" type="line"/>
      <point x="298" y="661" type="line"/>
      <point x="455" y="240" type="line"/>
    </contour>
    <contour>
      <point x="356" y="726"/>
      <point x="330" y="700"/>
      <point x="298" y="700" type="curve" smooth="yes"/>
      <point x="265" y="700"/>
      <point x="239" y="726"/>
      <point x="239" y="759" type="curve" smooth="yes"/>
      <point x="239" y="791"/>
      <point x="265" y="817"/>
      <point x="298" y="817" type="curve" smooth="yes"/>
      <point x="330" y="817"/>
      <point x="356" y="791"/>
      <point x="356" y="759" type="curve" smooth="yes"/>
    </contour>
    <contour>
      <point x="312" y="681" type="line"/>
      <point x="348" y="688"/>
      <point x="376" y="720"/>
      <point x="376" y="759" type="curve" smooth="yes"/>
      <point x="376" y="802"/>
      <point x="341" y="837"/>
      <point x="298" y="837" type="curve" smooth="yes"/>
      <point x="254" y="837"/>
      <point x="219" y="802"/>
      <point x="219" y="759" type="curve" smooth="yes"/>
      <point x="219" y="720"/>
      <point x="247" y="688"/>
      <point x="284" y="681" type="curve"/>
      <point x="30" y="0" type="line"/>
      <point x="51" y="0" type="line"/>
      <point x="133" y="220" type="line"/>
      <point x="462" y="220" type="line"/>
      <point x="544" y="0" type="line"/>
      <point x="566" y="0" type="line"/>
    </contour>
  </outline>
</glyph>
<glyph name="AE" format="1">
  <advance width="898"/>
  <unicode hex="00C6"/>
  <outline>
    <contour>
      <point x="187" y="240" type="line"/>
      <point x="416" y="649" type="line"/>
      <point x="416" y="240" type="line"/>
    </contour>
    <contour>
      <point x="833" y="20" type="line"/>
      <point x="436" y="20" type="line"/>
      <point x="436" y="335" type="line"/>
      <point x="786" y="335" type="line"/>
      <point x="786" y="355" type="line"/>
      <point x="436" y="355" type="line"/>
      <point x="436" y="670" type="line"/>
      <point x="833" y="670" type="line"/>
      <point x="833" y="690" type="line"/>
      <point x="416" y="690" type="line"/>
      <point x="30" y="0" type="line"/>
      <point x="53" y="0" type="line"/>
      <point x="176" y="220" type="line"/>
      <point x="416" y="220" type="line"/>
      <point x="416" y="0" type="line"/>
      <point x="833" y="0" type="line"/>
    </contour>
  </outline>
</glyph>
<glyph name="Ccedilla" format="1">
  <advance width="685"/>
  <unicode hex="00C7"/>
  <outline>
    <contour>
      <point x="617" y="176" type="line"/>
      <point x="572" y="68"/>
      <point x="481" y="10"/>
      <point x="364" y="10" type="curve" smooth="yes"/>
      <point x="169" y="10"/>
      <point x="80" y="167"/>
      <point x="80" y="345" type="curve" smooth="yes"/>
      <point x="80" y="523"/>
      <point x="169" y="680"/>
      <point x="364" y="680" type="curve" smooth="yes"/>
      <point x="481" y="680"/>
      <point x="572" y="622"/>
      <point x="617" y="514" type="curve"/>
      <point x="635" y="522" type="line"/>
      <point x="587" y="637"/>
      <point x="489" y="700"/>
      <point x="364" y="700" type="curve" smooth="yes"/>
      <point x="158" y="700"/>
      <point x="60" y="534"/>
      <point x="60" y="345" type="curve" smooth="yes"/>
      <point x="60" y="157"/>
      <point x="157" y="-8"/>
      <point x="362" y="-10" type="curve"/>
      <point x="333" y="-60" type="line"/>
      <point x="344" y="-59"/>
      <point x="356" y="-57"/>
      <point x="367" y="-57" type="curve" smooth="yes"/>
      <point x="381" y="-57"/>
      <point x="409" y="-61"/>
      <point x="409" y="-80" type="curve" smooth="yes"/>
      <point x="409" y="-99"/>
      <point x="381" y="-106"/>
      <point x="366" y="-106" type="curve" smooth="yes"/>
      <point x="351" y="-106"/>
      <point x="336" y="-102"/>
      <point x="322" y="-96" type="curve"/>
      <point x="315" y="-114" type="line"/>
      <point x="331" y="-121"/>
      <point x="348" y="-126"/>
      <point x="366" y="-126" type="curve" smooth="yes"/>
      <point x="394" y="-126"/>
      <point x="429" y="-111"/>
      <point x="429" y="-79" type="curve" smooth="yes"/>
      <point x="429" y="-48"/>
      <point x="394" y="-38"/>
      <point x="369" y="-37" type="curve"/>
      <point x="385" y="-9" type="line"/>
      <point x="500" y="-3"/>
      <point x="590" y="60"/>
      <point x="635" y="169" type="curve"/>
    </contour>
  </outline>
</glyph>
<glyph name="Eacute" format="1">
  <advance width="577"/>
  <unicode hex="00C9"/>
  <outline>
    <contour>
      <point x="512" y="20" type="line"/>
      <point x="115" y="20" type="line"/>
      <point x="115" y="335" type="line"/>
      <point x="465" y="335" type="line"/>
      <point x="465" y="355" type="line"/>
      <point x="115" y="355" type="line"/>
      <point x="115" y="670" type="line"/>
      <point x="512" y="670" type="line"/>
      <point x="512" y="690" type="line"/>
      <point x="95" y="690" type="line"/>
      <point x="95" y="0" type="line"/>
      <point x="512" y="0" type="line"/>
    </contour>
    <contour>
      <point x="338" y="870" type="line"/>
      <point x="225" y="758" type="line"/>
      <point x="239" y="743" type="line"/>
      <point x="352" y="856" type="line"/>
    </contour>
  </outline>
</glyph>
<glyph name="Ecircumflex" format="1">
  <advance width="577"/>
  <unicode hex="00CA"/>
  <outline>
    <contour>
      <point x="512" y="20" type="line"/>
      <point x="115" y="20" type="line"/>
      <point x="115" y="335" type="line"/>
      <point x="465" y="335" type="line"/>
      <point x="465" y="355" type="line"/>
      <point x="115" y="355" type="line"/>
      <point x="115" y="670" type="line"/>
      <point x="512" y="670" type="line"/>
      <point x="512" y="690" type="line"/>
      <point x="95" y="690" type="line"/>
      <point x="95" y="0" type="line"/>
      <point x="512" y="0" type="line"/>
    </contour>
    <contour>
      <point x="299" y="870" type="line"/>
      <point x="186" y="758" type="line"/>
      <point x="200" y="743" type="line"/>
      <point x="298" y="842" type="line"/>
      <point x="397" y="743" type="line"/>
      <point x="411" y="758" type="line"/>
    </contour>
  </outline>
</glyph>
<glyph name="Edieresis" format="1">
  <advance width="577"/>
  <unicode hex="00CB"/>
  <outline>
    <contour>
      <point x="512" y="20" type="line"/>
      <point x="115" y="20" type="line"/>
      <point x="115" y="335" type="line"/>
      <point x="465" y="335" type="line"/>
      <point x="465" y="355" type="line"/>
      <point x="115" y="355" type="line"/>
      <point x="115" y="670" type="line"/>
      <point x="512" y="670" type="line"/>
      <point x="512" y="690" type="line"/>
      <point x="95" y="690" type="line"/>
      <point x="95" y="0" type="line"/>
      <point x="512" y="0" type="line"/>
    </contour>
    <contour>
      <point x="224" y="850" type="line"/>
      <point x="204" y="850" type="line"/>
      <point x="204" y="751" type="line"/>
      <point x="224" y="751" type="line"/>
    </contour>
    <contour>
      <point x="374" y="850" type="line"/>
      <point x="354" y="850" type="line"/>
      <point x="354" y="751" type="line"/>
      <point x="374" y="751" type="line"/>
    </contour>
  </outline>
</glyph>
<glyph name="Igrave" format="1">
  <advance width="210"/>
  <unicode hex="00CC"/>
  <outline>
    <contour>
      <point x="115" y="690" type="line"/>
      <point x="95" y="690" type="line"/>
      <point x="95" y="0" type="line"/>
      <point x="115" y="0" type="line"/>
    </contour>
    <contour>
      <point x="6" y="870" type="line"/>
      <point x="-8" y="856" type="line"/>
      <point x="104" y="743" type="line"/>
      <point x="118" y="758" type="line"/>
    </contour>
  </outline>
</glyph>
<glyph name="Iacute" format="1">
  <advance width="210"/>
  <unicode hex="00CD"/>
  <outline>
    <contour>
      <point x="115" y="690" type="line"/>
      <point x="95" y="690" type="line"/>
      <point x="95" y="0" type="line"/>
      <point x="115" y="0" type="line"/>
    </contour>
    <contour>
      <point x="204" y="870" type="line"/>
      <point x="92" y="758" type="line"/>
      <point x="106" y="743" type="line"/>
      <point x="218" y="856" type="line"/>
    </contour>
  </outline>
</glyph>
<glyph name="Icircumflex" format="1">
  <advance width="210"/>
  <unicode hex="00CE"/>
  <outline>
    <contour>
      <point x="115" y="690" type="line"/>
      <point x="95" y="690" type="line"/>
      <point x="95" y="0" type="line"/>
      <point x="115" y="0" type="line"/>
    </contour>
    <contour>
      <point x="105" y="870" type="line"/>
      <point x="-7" y="758" type="line"/>
      <point x="7" y="743" type="line"/>
      <point x="105" y="842" type="line"/>
      <point x="203" y="743" type="line"/>
      <point x="217" y="758" type="line"/>
    </contour>
  </outline>
</glyph>
<glyph name="Eth" format="1">
  <advance width="662"/>
  <unicode hex="00D0"/>
  <outline>
    <contour>
      <point x="577" y="130"/>
      <point x="468" y="20"/>
      <point x="253" y="20" type="curve" smooth="yes"/>
      <point x="115" y="20" type="line"/>
      <point x="115" y="321" type="line"/>
      <point x="355" y="321" type="line"/>
      <point x="355" y="341" type="line"/>
      <point x="115" y="341" type="line"/>
      <point x="115" y="670" type="line"/>
      <point x="253" y="670" type="line" smooth="yes"/>
      <point x="468" y="670"/>
      <point x="577" y="560"/>
      <point x="577" y="345" type="curve" smooth="yes"/>
    </contour>
    <contour>
      <point x="597" y="571"/>
      <point x="479" y="690"/>
      <point x="253" y="690" type="curve" smooth="yes"/>
      <point x="95" y="690" type="line"/>
      <point x="95" y="341" type="line"/>
      <point x="20" y="341" type="line"/>
      <point x="20" y="321" type="line"/>
      <point x="95" y="321" type="line"/>
      <point x="95" y="0" type="line"/>
      <point x="253" y="0" type="line" smooth="yes"/>
      <point x="479" y="0"/>
      <point x="597" y="119"/>
      <point x="597" y="345" type="curve" smooth="yes"/>
    </contour>
  </outline>
</glyph>
<glyph name="Ntilde" format="1">
  <advance width="652"/>
  <unicode hex="00D1"/>
  <outline>
    <contour>
      <point x="557" y="690" type="line"/>
      <point x="537" y="690" type="line"/>
      <point x="537" y="34" type="line"/>
      <point x="117" y="690" type="line"/>
      <point x="95" y="690" type="line"/>
      <point x="95" y="0" type="line"/>
      <point x="115" y="0" type="line"/>
      <point x="115" y="656" type="line"/>
      <point x="535" y="0" type="line"/>
      <point x="557" y="0" type="line"/>
    </contour>
    <contour>
      <point x="452" y="835" type="line"/>
      <point x="449" y="806"/>
      <point x="435" y="767"/>
      <point x="399" y="767" type="curve" smooth="yes"/>
      <point x="346" y="767"/>
      <point x="315" y="838"/>
      <point x="253" y="838" type="curve" smooth="yes"/>
      <point x="206" y="838"/>
      <point x="185" y="792"/>
      <point x="180" y="752" type="curve"/>
      <point x="200" y="749" type="line"/>
      <point x="203" y="779"/>
      <point x="217" y="818"/>
      <point x="252" y="818" type="curve" smooth="yes"/>
      <point x="306" y="818"/>
      <point x="337" y="747"/>
      <point x="399" y="747" type="curve" smooth="yes"/>
      <point x="447" y="747"/>
      <point x="467" y="792"/>
      <point x="472" y="833" type="curve"/>
    </contour>
  </outline>
</glyph>
<glyph name="Oacute" format="1">
  <advance width="728"/>
  <unicode hex="00D3"/>
  <outline>
    <contour>
      <point x="648" y="167"/>
      <point x="559" y="10"/>
      <point x="364" y="10" type="curve" smooth="yes"/>
      <point x="169" y="10"/>
      <point x="80" y="167"/>
      <point x="80" y="345" type="curve" smooth="yes"/>
      <point x="80" y="523"/>
      <point x="169" y="680"/>
      <point x="364" y="680" type="curve" smooth="yes"/>
      <point x="559" y="680"/>
      <point x="648" y="523"/>
      <point x="648" y="345" type="curve" smooth="yes"/>
    </contour>
    <contour>
      <point x="668" y="534"/>
      <point x="571" y="700"/>
      <point x="364" y="700" type="curve" smooth="yes"/>
      <point x="158" y="700"/>
      <point x="60" y="534"/>
      <point x="60" y="345" type="curve" smooth="yes"/>
      <point x="60" y="156"/>
      <point x="158" y="-10"/>
      <point x="364" y="-10" type="curve" smooth="yes"/>
      <point x="571" y="-10"/>
      <point x="668" y="156"/>
      <point x="668" y="345" type="curve" smooth="yes"/>
    </contour>
    <contour>
      <point x="463" y="870" type="line"/>
      <point x="351" y="758" type="line"/>
      <point x="365" y="743" type="line"/>
      <point x="478" y="856" type="line"/>
    </contour>
  </outline>
</glyph>
<glyph name="Otilde" format="1">
  <advance width="728"/>
  <unicode hex="00D5"/>
  <outline>
    <contour>
      <point x="648" y="167"/>
      <point x="559" y="10"/>
      <point x="364" y="10" type="curve" smooth="yes"/>
      <point x="169" y="10"/>
      <point x="80" y="167"/>
      <point x="80" y="345" type="curve" smooth="yes"/>
      <point x="80" y="523"/>
      <point x="169" y="680"/>
      <point x="364" y="680" type="curve" smooth="yes"/>
      <point x="559" y="680"/>
      <point x="648" y="523"/>
      <point x="648" y="345" type="curve" smooth="yes"/>
    </contour>
    <contour>
      <point x="668" y="534"/>
      <point x="571" y="700"/>
      <point x="364" y="700" type="curve" smooth="yes"/>
      <point x="158" y="700"/>
      <point x="60" y="534"/>
      <point x="60" y="345" type="curve" smooth="yes"/>
      <point x="60" y="156"/>
      <point x="158" y="-10"/>
      <point x="364" y="-10" type="curve" smooth="yes"/>
      <point x="571" y="-10"/>
      <point x="668" y="156"/>
      <point x="668" y="345" type="curve" smooth="yes"/>
    </contour>
    <contour>
      <point x="491" y="835" type="line"/>
      <point x="487" y="806"/>
      <point x="473" y="767"/>
      <point x="438" y="767" type="curve" smooth="yes"/>
      <point x="384" y="767"/>
      <point x="353" y="838"/>
      <point x="291" y="838" type="curve" smooth="yes"/>
      <point x="244" y="838"/>
      <point x="223" y="792"/>
      <point x="218" y="752" type="curve"/>
      <point x="238" y="749" type="line"/>
      <point x="241" y="779"/>
      <point x="255" y="818"/>
      <point x="291" y="818" type="curve" smooth="yes"/>
      <point x="344" y="818"/>
      <point x="375" y="747"/>
      <point x="437" y="747" type="curve" smooth="yes"/>
      <point x="485" y="747"/>
      <point x="506" y="792"/>
      <point x="511" y="833" type="curve"/>
    </contour>
  </outline>
</glyph>
<glyph name="Odieresis" format="1">
  <advance width="728"/>
  <unicode hex="00D6"/>
  <outline>
    <contour>
      <point x="648" y="167"/>
      <point x="559" y="10"/>
      <point x="364" y="10" type="curve" smooth="yes"/>
      <point x="169" y="10"/>
      <point x="80" y="167"/>
      <point x="80" y="345" type="curve" smooth="yes"/>
      <point x="80" y="523"/>
      <point x="169" y="680"/>
      <point x="364" y="680" type="curve" smooth="yes"/>
      <point x="559" y="680"/>
      <point x="648" y="523"/>
      <point x="648" y="345" type="curve" smooth="yes"/>
    </contour>
    <contour>
      <point x="668" y="534"/>
      <point x="571" y="700"/>
      <point x="364" y="700" type="curve" smooth="yes"/>
      <point x="158" y="700"/>
      <point x="60" y="534"/>
      <point x="60" y="345" type="curve" smooth="yes"/>
      <point x="60" y="156"/>
      <point x="158" y="-10"/>
      <point x="364" y="-10" type="curve" smooth="yes"/>
      <point x="571" y="-10"/>
      <point x="668" y="156"/>
      <point x="668" y="345" type="curve" smooth="yes"/>
    </contour>
    <contour>
      <point x="299" y="850" type="line"/>
      <point x="279" y="850" type="line"/>
      <point x="279" y="751" type="line"/>
      <point x="299" y="751" type="line"/>
    </contour>
    <contour>
      <point x="449" y="850" type="line"/>
      <point x="429" y="850" type="line"/>
      <point x="429" y="751" type="line"/>
      <point x="449" y="751" type="line"/>
    </contour>
  </outline>
</glyph>
<glyph name="multiply" format="1">
  <advance width="375"/>
  <unicode hex="00D7"/>
  <outline>
    <contour>
      <point x="299" y="368" type="line"/>
      <point x="188" y="257" type="line"/>
      <point x="76" y="368" type="line"/>
      <point x="62" y="354" type="line"/>
      <point x="173" y="243" type="line"/>
      <point x="62" y="131" type="line"/>
      <point x="76" y="117" type="line"/>
      <point x="188" y="228" type="line"/>
      <point x="299" y="117" type="line"/>
      <point x="313" y="131" type="line"/>
      <point x="202" y="242" type="line"/>
      <point x="313" y="354" type="line"/>
    </contour>
  </outline>
</glyph>
<glyph name="Oslash" format="1">
  <advance width="728"/>
  <unicode hex="00D8"/>
  <outline>
    <contour>
      <point x="648" y="167"/>
      <point x="559" y="10"/>
      <point x="364" y="10" type="curve" smooth="yes"/>
      <point x="262" y="10"/>
      <point x="188" y="53"/>
      <point x="142" y="121" type="curve"/>
      <point x="598" y="552" type="line"/>
      <point x="632" y="494"/>
      <point x="648" y="422"/>
      <point x="648" y="345" type="curve" smooth="yes"/>
    </contour>
    <contour>
      <point x="131" y="138" type="line"/>
      <point x="96" y="196"/>
      <point x="80" y="268"/>
      <point x="80" y="345" type="curve" smooth="yes"/>
      <point x="80" y="523"/>
      <point x="169" y="680"/>
      <point x="364" y="680" type="curve" smooth="yes"/>
      <point x="467" y="680"/>
      <point x="540" y="637"/>
      <point x="587" y="569" type="curve"/>
    </contour>
    <contour>
      <point x="722" y="697" type="line"/>
      <point x="601" y="583" type="line"/>
      <point x="551" y="654"/>
      <point x="473" y="700"/>
      <point x="364" y="700" type="curve" smooth="yes"/>
      <point x="158" y="700"/>
      <point x="60" y="534"/>
      <point x="60" y="345" type="curve" smooth="yes"/>
      <point x="60" y="263"/>
      <point x="78" y="185"/>
      <point x="116" y="124" type="curve"/>
      <point x="-7" y="7" type="line"/>
      <point x="7" y="-7" type="line"/>
      <point x="127" y="107" type="line"/>
      <point x="177" y="36"/>
      <point x="256" y="-10"/>
      <point x="364" y="-10" type="curve" smooth="yes"/>
      <point x="571" y="-10"/>
      <point x="668" y="156"/>
      <point x="668" y="345" type="curve" smooth="yes"/>
      <point x="668" y="427"/>
      <point x="650" y="505"/>
      <point x="612" y="566" type="curve"/>
      <point x="735" y="683" type="line"/>
    </contour>
  </outline>
</glyph>
<glyph name="Uacute" format="1">
  <advance width="704"/>
  <unicode hex="00DA"/>
  <outline>
    <contour>
      <point x="614" y="690" type="line"/>
      <point x="594" y="690" type="line"/>
      <point x="594" y="277" type="line" smooth="yes"/>
      <point x="594" y="120"/>
      <point x="518" y="10"/>
      <point x="352" y="10" type="curve" smooth="yes"/>
      <point x="186" y="10"/>
      <point x="110" y="120"/>
      <point x="110" y="277" type="curve" smooth="yes"/>
      <point x="110" y="690" type="line"/>
      <point x="90" y="690" type="line"/>
      <point x="90" y="277" type="line" smooth="yes"/>
      <point x="90" y="109"/>
      <point x="175" y="-10"/>
      <point x="352" y="-10" type="curve" smooth="yes"/>
      <point x="529" y="-10"/>
      <point x="614" y="109"/>
      <point x="614" y="277" type="curve" smooth="yes"/>
    </contour>
    <contour>
      <point x="453" y="870" type="line"/>
      <point x="341" y="758" type="line"/>
      <point x="355" y="743" type="line"/>
      <point x="468" y="856" type="line"/>
    </contour>
  </outline>
</glyph>
<glyph name="Ucircumflex" format="1">
  <advance width="704"/>
  <unicode hex="00DB"/>
  <outline>
    <contour>
      <point x="614" y="690" type="line"/>
      <point x="594" y="690" type="line"/>
      <point x="594" y="277" type="line" smooth="yes"/>
      <point x="594" y="120"/>
      <point x="518" y="10"/>
      <point x="352" y="10" type="curve" smooth="yes"/>
      <point x="186" y="10"/>
      <point x="110" y="120"/>
      <point x="110" y="277" type="curve" smooth="yes"/>
      <point x="110" y="690" type="line"/>
      <point x="90" y="690" type="line"/>
      <point x="90" y="277" type="line" smooth="yes"/>
      <point x="90" y="109"/>
      <point x="175" y="-10"/>
      <point x="352" y="-10" type="curve" smooth="yes"/>
      <point x="529" y="-10"/>
      <point x="614" y="109"/>
      <point x="614" y="277" type="curve" smooth="yes"/>
    </contour>
    <contour>
      <point x="352" y="870" type="line"/>
      <point x="240" y="758" type="line"/>
      <point x="254" y="743" type="line"/>
      <point x="352" y="842" type="line"/>
      <point x="450" y="743" type="line"/>
      <point x="464" y="758" type="line"/>
    </contour>
  </outline>
</glyph>
<glyph name="Udieresis" format="1">
  <advance width="704"/>
  <unicode hex="00DC"/>
  <outline>
    <contour>
      <point x="614" y="690" type="line"/>
      <point x="594" y="690" type="line"/>
      <point x="594" y="277" type="line" smooth="yes"/>
      <point x="594" y="120"/>
      <point x="518" y="10"/>
      <point x="352" y="10" type="curve" smooth="yes"/>
      <point x="186" y="10"/>
      <point x="110" y="120"/>
      <point x="110" y="277" type="curve" smooth="yes"/>
      <point x="110" y="690" type="line"/>
      <point x="90" y="690" type="line"/>
      <point x="90" y="277" type="line" smooth="yes"/>
      <point x="90" y="109"/>
      <point x="175" y="-10"/>
      <point x="352" y="-10" type="curve" smooth="yes"/>
      <point x="529" y="-10"/>
      <point x="614" y="109"/>
      <point x="614" y="277" type="curve" smooth="yes"/>
    </contour>
    <contour>
      <point x="287" y="850" type="line"/>
      <point x="267" y="850" type="line"/>
      <point x="267" y="751" type="line"/>
      <point x="287" y="751" type="line"/>
    </contour>
    <contour>
      <point x="437" y="850" type="line"/>
      <point x="417" y="850" type="line"/>
      <point x="417" y="751" type="line"/>
      <point x="437" y="751" type="line"/>
    </contour>
  </outline>
</glyph>
<glyph name="Yacute" format="1">
  <advance width="606"/>
  <unicode hex="00DD"/>
  <outline>
    <contour>
      <point x="552" y="690" type="line"/>
      <point x="303" y="289" type="line"/>
      <point x="54" y="690" type="line"/>
      <point x="30" y="690" type="line"/>
      <point x="293" y="267" type="line"/>
      <point x="293" y="-10" type="line"/>
      <point x="313" y="-10" type="line"/>
      <point x="313" y="267" type="line"/>
      <point x="576" y="690" type="line"/>
    </contour>
    <contour>
      <point x="398" y="870" type="line"/>
      <point x="285" y="758" type="line"/>
      <point x="299" y="743" type="line"/>
      <point x="412" y="856" type="line"/>
    </contour>
  </outline>
</glyph>
<glyph name="Thorn" format="1">
  <advance width="587"/>
  <unicode hex="00DE"/>
  <outline>
    <contour>
      <point x="527" y="329"/>
      <point x="437" y="275"/>
      <point x="342" y="275" type="curve" smooth="yes"/>
      <point x="115" y="275" type="line"/>
      <point x="115" y="590" type="line"/>
      <point x="342" y="590" type="line" smooth="yes"/>
      <point x="437" y="590"/>
      <point x="527" y="536"/>
      <point x="527" y="433" type="curve" smooth="yes"/>
    </contour>
    <contour>
      <point x="547" y="547"/>
      <point x="448" y="610"/>
      <point x="342" y="610" type="curve" smooth="yes"/>
      <point x="115" y="610" type="line"/>
      <point x="115" y="740" type="line"/>
      <point x="95" y="740" type="line"/>
      <point x="95" y="0" type="line"/>
      <point x="115" y="0" type="line"/>
      <point x="115" y="255" type="line"/>
      <point x="342" y="255" type="line" smooth="yes"/>
      <point x="448" y="255"/>
      <point x="547" y="318"/>
      <point x="547" y="433" type="curve" smooth="yes"/>
    </contour>
  </outline>
</glyph>
<glyph name="germandbls" format="1">
  <advance width="535"/>
  <unicode hex="00DF"/>
  <outline>
    <contour>
      <point x="490" y="251"/>
      <point x="331" y="318"/>
      <point x="331" y="383" type="curve" smooth="yes"/>
      <point x="331" y="456"/>
      <point x="447" y="467"/>
      <point x="447" y="552" type="curve" smooth="yes"/>
      <point x="447" y="643"/>
      <point x="355" y="700"/>
      <point x="271" y="700" type="curve" smooth="yes"/>
      <point x="171" y="700"/>
      <point x="90" y="641"/>
      <point x="90" y="536" type="curve" smooth="yes"/>
      <point x="90" y="0" type="line"/>
      <point x="110" y="0" type="line"/>
      <point x="110" y="536" type="line" smooth="yes"/>
      <point x="110" y="630"/>
      <point x="182" y="680"/>
      <point x="271" y="680" type="curve" smooth="yes"/>
      <point x="344" y="680"/>
      <point x="426" y="633"/>
      <point x="426" y="552" type="curve" smooth="yes"/>
      <point x="426" y="476"/>
      <point x="311" y="471"/>
      <point x="311" y="383" type="curve" smooth="yes"/>
      <point x="311" y="303"/>
      <point x="470" y="244"/>
      <point x="470" y="132" type="curve" smooth="yes"/>
      <point x="470" y="60"/>
      <point x="417" y="10"/>
      <point x="345" y="10" type="curve" smooth="yes"/>
      <point x="303" y="10"/>
      <point x="263" y="24"/>
      <point x="225" y="41" type="curve"/>
      <point x="217" y="23" type="line"/>
      <point x="257" y="4"/>
      <point x="300" y="-10"/>
      <point x="345" y="-10" type="curve" smooth="yes"/>
      <point x="428" y="-10"/>
      <point x="490" y="49"/>
      <point x="490" y="133" type="curve" smooth="yes"/>
    </contour>
  </outline>
</glyph>
<glyph name="agrave" format="1">
  <advance width="510"/>
  <unicode hex="00E0"/>
  <outline>
    <contour>
      <point x="405" y="220" type="line" smooth="yes"/>
      <point x="405" y="109"/>
      <point x="314" y="10"/>
      <point x="201" y="10" type="curve" smooth="yes"/>
      <point x="130" y="10"/>
      <point x="75" y="44"/>
      <point x="75" y="120" type="curve" smooth="yes"/>
      <point x="75" y="228"/>
      <point x="173" y="260"/>
      <point x="264" y="260" type="curve" smooth="yes"/>
      <point x="405" y="260" type="line"/>
    </contour>
    <contour>
      <point x="425" y="331" type="line" smooth="yes"/>
      <point x="425" y="429"/>
      <point x="353" y="495"/>
      <point x="257" y="495" type="curve" smooth="yes"/>
      <point x="168" y="495"/>
      <point x="115" y="459"/>
      <point x="84" y="384" type="curve"/>
      <point x="102" y="376" type="line"/>
      <point x="130" y="443"/>
      <point x="176" y="475"/>
      <point x="257" y="475" type="curve" smooth="yes"/>
      <point x="342" y="475"/>
      <point x="405" y="418"/>
      <point x="405" y="331" type="curve" smooth="yes"/>
      <point x="405" y="280" type="line"/>
      <point x="264" y="280" type="line" smooth="yes"/>
      <point x="161" y="280"/>
      <point x="55" y="240"/>
      <point x="55" y="120" type="curve" smooth="yes"/>
      <point x="55" y="33"/>
      <point x="119" y="-10"/>
      <point x="201" y="-10" type="curve" smooth="yes"/>
      <point x="295" y="-10"/>
      <point x="377" y="46"/>
      <point x="405" y="142" type="curve"/>
      <point x="405" y="0" type="line"/>
      <point x="425" y="0" type="line"/>
    </contour>
    <contour>
      <point x="155" y="690" type="line"/>
      <point x="141" y="676" type="line"/>
      <point x="253" y="563" type="line"/>
      <point x="267" y="578" type="line"/>
    </contour>
  </outline>
</glyph>
<glyph name="atilde" format="1">
  <advance width="510"/>
  <unicode hex="00E3"/>
  <outline>
    <contour>
      <point x="405" y="220" type="line" smooth="yes"/>
      <point x="405" y="109"/>
      <point x="314" y="10"/>
      <point x="201" y="10" type="curve" smooth="yes"/>
      <point x="130" y="10"/>
      <point x="75" y="44"/>
      <point x="75" y="120" type="curve" smooth="yes"/>
      <point x="75" y="228"/>
      <point x="173" y="260"/>
      <point x="264" y="260" type="curve" smooth="yes"/>
      <point x="405" y="260" type="line"/>
    </contour>
    <contour>
      <point x="425" y="331" type="line" smooth="yes"/>
      <point x="425" y="429"/>
      <point x="353" y="495"/>
      <point x="257" y="495" type="curve" smooth="yes"/>
      <point x="168" y="495"/>
      <point x="115" y="459"/>
      <point x="84" y="384" type="curve"/>
      <point x="102" y="376" type="line"/>
      <point x="130" y="443"/>
      <point x="176" y="475"/>
      <point x="257" y="475" type="curve" smooth="yes"/>
      <point x="342" y="475"/>
      <point x="405" y="418"/>
      <point x="405" y="331" type="curve" smooth="yes"/>
      <point x="405" y="280" type="line"/>
      <point x="264" y="280" type="line" smooth="yes"/>
      <point x="161" y="280"/>
      <point x="55" y="240"/>
      <point x="55" y="120" type="curve" smooth="yes"/>
      <point x="55" y="33"/>
      <point x="119" y="-10"/>
      <point x="201" y="-10" type="curve" smooth="yes"/>
      <point x="295" y="-10"/>
      <point x="377" y="46"/>
      <point x="405" y="142" type="curve"/>
      <point x="405" y="0" type="line"/>
      <point x="425" y="0" type="line"/>
    </contour>
    <contour>
      <point x="381" y="655" type="line"/>
      <point x="378" y="626"/>
      <point x="364" y="587"/>
      <point x="328" y="587" type="curve" smooth="yes"/>
      <point x="275" y="587"/>
      <point x="244" y="658"/>
      <point x="182" y="658" type="curve" smooth="yes"/>
      <point x="135" y="658"/>
      <point x="113" y="612"/>
      <point x="109" y="572" type="curve"/>
      <point x="128" y="569" type="line"/>
      <point x="132" y="599"/>
      <point x="146" y="638"/>
      <point x="181" y="638" type="curve" smooth="yes"/>
      <point x="235" y="638"/>
      <point x="266" y="567"/>
      <point x="328" y="567" type="curve" smooth="yes"/>
      <point x="375" y="567"/>
      <point x="396" y="612"/>
      <point x="401" y="653" type="curve"/>
    </contour>
  </outline>
</glyph>
<glyph name="aring" format="1">
  <advance width="510"/>
  <unicode hex="00E5"/>
  <outline>
    <contour>
      <point x="405" y="220" type="line" smooth="yes"/>
      <point x="405" y="109"/>
      <point x="314" y="10"/>
      <point x="201" y="10" type="curve" smooth="yes"/>
      <point x="130" y="10"/>
      <point x="75" y="44"/>
      <point x="75" y="120" type="curve" smooth="yes"/>
      <point x="75" y="228"/>
      <point x="173" y="260"/>
      <point x="264" y="260" type="curve" smooth="yes"/>
      <point x="405" y="260" type="line"/>
    </contour>
    <contour>
      <point x="425" y="331" type="line" smooth="yes"/>
      <point x="425" y="429"/>
      <point x="353" y="495"/>
      <point x="257" y="495" type="curve" smooth="yes"/>
      <point x="168" y="495"/>
      <point x="115" y="459"/>
      <point x="84" y="384" type="curve"/>
      <point x="102" y="376" type="line"/>
      <point x="130" y="443"/>
      <point x="176" y="475"/>
      <point x="257" y="475" type="curve" smooth="yes"/>
      <point x="342" y="475"/>
      <point x="405" y="418"/>
      <point x="405" y="331" type="curve" smooth="yes"/>
      <point x="405" y="280" type="line"/>
      <point x="264" y="280" type="line" smooth="yes"/>
      <point x="161" y="280"/>
      <point x="55" y="240"/>
      <point x="55" y="120" type="curve" smooth="yes"/>
      <point x="55" y="33"/>
      <point x="119" y="-10"/>
      <point x="201" y="-10" type="curve" smooth="yes"/>
      <point x="295" y="-10"/>
      <point x="377" y="46"/>
      <point x="405" y="142" type="curve"/>
      <point x="405" y="0" type="line"/>
      <point x="425" y="0" type="line"/>
    </contour>
    <contour>
      <point x="313" y="606"/>
      <point x="287" y="580"/>
      <point x="255" y="580" type="curve" smooth="yes"/>
      <point x="223" y="580"/>
      <point x="196" y="606"/>
      <point x="196" y="639" type="curve" smooth="yes"/>
      <point x="196" y="671"/>
      <point x="223" y="697"/>
      <point x="255" y="697" type="curve" smooth="yes"/>
      <point x="287" y="697"/>
      <point x="313" y="671"/>
      <point x="313" y="639" type="curve" smooth="yes"/>
    </contour>
    <contour>
      <point x="333" y="682"/>
      <point x="298" y="717"/>
      <point x="255" y="717" type="curve" smooth="yes"/>
      <point x="212" y="717"/>
      <point x="176" y="682"/>
      <point x="176" y="639" type="curve" smooth="yes"/>
      <point x="176" y="595"/>
      <point x="212" y="560"/>
      <point x="255" y="560" type="curve" smooth="yes"/>
      <point x="298" y="560"/>
      <point x="333" y="595"/>
      <point x="333" y="639" type="curve" smooth="yes"/>
    </contour>
  </outline>
</glyph>
<glyph name="ae" format="1">
  <advance width="871"/>
  <unicode hex="00E6"/>
  <outline>
    <contour>
      <point x="405" y="220" type="line" smooth="yes"/>
      <point x="405" y="109"/>
      <point x="314" y="10"/>
      <point x="201" y="10" type="curve" smooth="yes"/>
      <point x="131" y="10"/>
      <point x="75" y="44"/>
      <point x="75" y="120" type="curve" smooth="yes"/>
      <point x="75" y="228"/>
      <point x="173" y="260"/>
      <point x="264" y="260" type="curve" smooth="yes"/>
      <point x="405" y="260" type="line"/>
    </contour>
    <contour>
      <point x="425" y="253" type="line"/>
      <point x="428" y="367"/>
      <point x="483" y="475"/>
      <point x="610" y="475" type="curve" smooth="yes"/>
      <point x="738" y="475"/>
      <point x="793" y="366"/>
      <point x="796" y="253" type="curve"/>
    </contour>
    <contour>
      <point x="816" y="367"/>
      <point x="761" y="495"/>
      <point x="610" y="495" type="curve" smooth="yes"/>
      <point x="518" y="495"/>
      <point x="453" y="443"/>
      <point x="423" y="357" type="curve"/>
      <point x="411" y="443"/>
      <point x="342" y="495"/>
      <point x="257" y="495" type="curve" smooth="yes"/>
      <point x="173" y="495"/>
      <point x="116" y="463"/>
      <point x="84" y="384" type="curve"/>
      <point x="102" y="376" type="line"/>
      <point x="131" y="447"/>
      <point x="182" y="475"/>
      <point x="257" y="475" type="curve" smooth="yes"/>
      <point x="342" y="475"/>
      <point x="405" y="418"/>
      <point x="405" y="331" type="curve" smooth="yes"/>
      <point x="405" y="280" type="line"/>
      <point x="264" y="280" type="line" smooth="yes"/>
      <point x="161" y="280"/>
      <point x="55" y="240"/>
      <point x="55" y="120" type="curve" smooth="yes"/>
      <point x="55" y="33"/>
      <point x="119" y="-10"/>
      <point x="201" y="-10" type="curve" smooth="yes"/>
      <point x="319" y="-10"/>
      <point x="388" y="64"/>
      <point x="414" y="158" type="curve"/>
      <point x="438" y="59"/>
      <point x="504" y="-10"/>
      <point x="610" y="-10" type="curve" smooth="yes"/>
      <point x="695" y="-10"/>
      <point x="759" y="35"/>
      <point x="791" y="112" type="curve"/>
      <point x="773" y="120" type="line"/>
      <point x="743" y="50"/>
      <point x="687" y="10"/>
      <point x="610" y="10" type="curve" smooth="yes"/>
      <point x="482" y="10"/>
      <point x="428" y="122"/>
      <point x="425" y="236" type="curve"/>
      <point x="816" y="236" type="line"/>
    </contour>
  </outline>
</glyph>
<glyph name="ccedilla" format="1">
  <advance width="482"/>
  <unicode hex="00E7"/>
  <outline>
    <contour>
      <point x="423" y="119" type="line"/>
      <point x="393" y="50"/>
      <point x="337" y="10"/>
      <point x="261" y="10" type="curve" smooth="yes"/>
      <point x="128" y="10"/>
      <point x="75" y="126"/>
      <point x="75" y="243" type="curve" smooth="yes"/>
      <point x="75" y="359"/>
      <point x="128" y="475"/>
      <point x="261" y="475" type="curve" smooth="yes"/>
      <point x="337" y="475"/>
      <point x="393" y="435"/>
      <point x="423" y="366" type="curve"/>
      <point x="441" y="374" type="line"/>
      <point x="408" y="451"/>
      <point x="345" y="495"/>
      <point x="261" y="495" type="curve" smooth="yes"/>
      <point x="117" y="495"/>
      <point x="55" y="371"/>
      <point x="55" y="243" type="curve" smooth="yes"/>
      <point x="55" y="117"/>
      <point x="114" y="-4"/>
      <point x="251" y="-10" type="curve"/>
      <point x="222" y="-60" type="line"/>
      <point x="233" y="-59"/>
      <point x="245" y="-57"/>
      <point x="256" y="-57" type="curve" smooth="yes"/>
      <point x="270" y="-57"/>
      <point x="298" y="-61"/>
      <point x="298" y="-80" type="curve" smooth="yes"/>
      <point x="298" y="-99"/>
      <point x="270" y="-106"/>
      <point x="255" y="-106" type="curve" smooth="yes"/>
      <point x="240" y="-106"/>
      <point x="225" y="-102"/>
      <point x="212" y="-96" type="curve"/>
      <point x="204" y="-114" type="line"/>
      <point x="220" y="-121"/>
      <point x="238" y="-126"/>
      <point x="255" y="-126" type="curve" smooth="yes"/>
      <point x="283" y="-126"/>
      <point x="318" y="-111"/>
      <point x="318" y="-79" type="curve" smooth="yes"/>
      <point x="318" y="-48"/>
      <point x="283" y="-38"/>
      <point x="258" y="-37" type="curve"/>
      <point x="274" y="-10" type="line"/>
      <point x="352" y="-5"/>
      <point x="410" y="39"/>
      <point x="442" y="112" type="curve"/>
    </contour>
  </outline>
</glyph>
<glyph name="eacute" format="1">
  <advance width="511"/>
  <unicode hex="00E9"/>
  <outline>
    <contour>
      <point x="75" y="253" type="line"/>
      <point x="78" y="367"/>
      <point x="133" y="475"/>
      <point x="261" y="475" type="curve" smooth="yes"/>
      <point x="388" y="475"/>
      <point x="443" y="366"/>
      <point x="446" y="253" type="curve"/>
    </contour>
    <contour>
      <point x="466" y="243" type="line" smooth="yes"/>
      <point x="466" y="371"/>
      <point x="404" y="495"/>
      <point x="261" y="495" type="curve" smooth="yes"/>
      <point x="116" y="495"/>
      <point x="55" y="371"/>
      <point x="55" y="243" type="curve" smooth="yes"/>
      <point x="55" y="114"/>
      <point x="116" y="-10"/>
      <point x="261" y="-10" type="curve" smooth="yes"/>
      <point x="345" y="-10"/>
      <point x="409" y="35"/>
      <point x="442" y="112" type="curve"/>
      <point x="423" y="120" type="line"/>
      <point x="393" y="50"/>
      <point x="337" y="10"/>
      <point x="261" y="10" type="curve" smooth="yes"/>
      <point x="132" y="10"/>
      <point x="78" y="122"/>
      <point x="75" y="236" type="curve"/>
      <point x="466" y="236" type="line"/>
    </contour>
    <contour>
      <point x="355" y="690" type="line"/>
      <point x="242" y="578" type="line"/>
      <point x="257" y="563" type="line"/>
      <point x="369" y="676" type="line"/>
    </contour>
  </outline>
</glyph>
<glyph name="edieresis" format="1">
  <advance width="511"/>
  <unicode hex="00EB"/>
  <outline>
    <contour>
      <point x="75" y="253" type="line"/>
      <point x="78" y="367"/>
      <point x="133" y="475"/>
      <point x="261" y="475" type="curve" smooth="yes"/>
      <point x="388" y="475"/>
      <point x="443" y="366"/>
      <point x="446" y="253" type="curve"/>
    </contour>
    <contour>
      <point x="466" y="243" type="line" smooth="yes"/>
      <point x="466" y="371"/>
      <point x="404" y="495"/>
      <point x="261" y="495" type="curve" smooth="yes"/>
      <point x="116" y="495"/>
      <point x="55" y="371"/>
      <point x="55" y="243" type="curve" smooth="yes"/>
      <point x="55" y="114"/>
      <point x="116" y="-10"/>
      <point x="261" y="-10" type="curve" smooth="yes"/>
      <point x="345" y="-10"/>
      <point x="409" y="35"/>
      <point x="442" y="112" type="curve"/>
      <point x="423" y="120" type="line"/>
      <point x="393" y="50"/>
      <point x="337" y="10"/>
      <point x="261" y="10" type="curve" smooth="yes"/>
      <point x="132" y="10"/>
      <point x="78" y="122"/>
      <point x="75" y="236" type="curve"/>
      <point x="466" y="236" type="line"/>
    </contour>
    <contour>
      <point x="191" y="690" type="line"/>
      <point x="171" y="690" type="line"/>
      <point x="171" y="591" type="line"/>
      <point x="191" y="591" type="line"/>
    </contour>
    <contour>
      <point x="341" y="690" type="line"/>
      <point x="321" y="690" type="line"/>
      <point x="321" y="591" type="line"/>
      <point x="341" y="591" type="line"/>
    </contour>
  </outline>
</glyph>
<glyph name="igrave" format="1">
  <advance width="190"/>
  <unicode hex="00EC"/>
  <outline>
    <contour>
      <point x="105" y="485" type="line"/>
      <point x="85" y="485" type="line"/>
      <point x="85" y="0" type="line"/>
      <point x="105" y="0" type="line"/>
    </contour>
    <contour>
      <point x="0" y="690" type="line"/>
      <point x="-15" y="676" type="line"/>
      <point x="98" y="563" type="line"/>
      <point x="112" y="578" type="line"/>
    </contour>
  </outline>
</glyph>
<glyph name="iacute" format="1">
  <advance width="190"/>
  <unicode hex="00ED"/>
  <outline>
    <contour>
      <point x="105" y="485" type="line"/>
      <point x="85" y="485" type="line"/>
      <point x="85" y="0" type="line"/>
      <point x="105" y="0" type="line"/>
    </contour>
    <contour>
      <point x="193" y="690" type="line"/>
      <point x="80" y="578" type="line"/>
      <point x="95" y="563" type="line"/>
      <point x="207" y="676" type="line"/>
    </contour>
  </outline>
</glyph>
<glyph name="icircumflex" format="1">
  <advance width="190"/>
  <unicode hex="00EE"/>
  <outline>
    <contour>
      <point x="105" y="485" type="line"/>
      <point x="85" y="485" type="line"/>
      <point x="85" y="0" type="line"/>
      <point x="105" y="0" type="line"/>
    </contour>
    <contour>
      <point x="95" y="690" type="line"/>
      <point x="-17" y="578" type="line"/>
      <point x="-3" y="563" type="line"/>
      <point x="95" y="662" type="line"/>
      <point x="193" y="563" type="line"/>
      <point x="207" y="578" type="line"/>
    </contour>
  </outline>
</glyph>
<glyph name="idieresis" format="1">
  <advance width="190"/>
  <unicode hex="00EF"/>
  <outline>
    <contour>
      <point x="105" y="485" type="line"/>
      <point x="85" y="485" type="line"/>
      <point x="85" y="0" type="line"/>
      <point x="105" y="0" type="line"/>
    </contour>
    <contour>
      <point x="30" y="690" type="line"/>
      <point x="10" y="690" type="line"/>
      <point x="10" y="591" type="line"/>
      <point x="30" y="591" type="line"/>
    </contour>
    <contour>
      <point x="180" y="690" type="line"/>
      <point x="160" y="690" type="line"/>
      <point x="160" y="591" type="line"/>
      <point x="180" y="591" type="line"/>
    </contour>
  </outline>
</glyph>
<glyph name="eth" format="1">
  <advance width="556"/>
  <unicode hex="00F0"/>
  <outline>
    <contour>
      <point x="446" y="126"/>
      <point x="393" y="10"/>
      <point x="261" y="10" type="curve" smooth="yes"/>
      <point x="128" y="10"/>
      <point x="75" y="126"/>
      <point x="75" y="243" type="curve" smooth="yes"/>
      <point x="75" y="359"/>
      <point x="128" y="475"/>
      <point x="261" y="475" type="curve" smooth="yes"/>
      <point x="393" y="475"/>
      <point x="446" y="359"/>
      <point x="446" y="243" type="curve" smooth="yes"/>
    </contour>
    <contour>
      <point x="556" y="616" type="line"/>
      <point x="466" y="616" type="line"/>
      <point x="466" y="740" type="line"/>
      <point x="446" y="740" type="line"/>
      <point x="446" y="616" type="line"/>
      <point x="221" y="616" type="line"/>
      <point x="221" y="596" type="line"/>
      <point x="446" y="596" type="line"/>
      <point x="446" y="362" type="line"/>
      <point x="415" y="445"/>
      <point x="350" y="495"/>
      <point x="261" y="495" type="curve" smooth="yes"/>
      <point x="116" y="495"/>
      <point x="55" y="371"/>
      <point x="55" y="243" type="curve" smooth="yes"/>
      <point x="55" y="114"/>
      <point x="116" y="-10"/>
      <point x="261" y="-10" type="curve" smooth="yes"/>
      <point x="350" y="-10"/>
      <point x="415" y="40"/>
      <point x="446" y="123" type="curve"/>
      <point x="446" y="0" type="line"/>
      <point x="466" y="0" type="line"/>
      <point x="466" y="596" type="line"/>
      <point x="556" y="596" type="line"/>
    </contour>
  </outline>
</glyph>
<glyph name="ntilde" format="1">
  <advance width="556"/>
  <unicode hex="00F1"/>
  <outline>
    <contour>
      <point x="471" y="293" type="line" smooth="yes"/>
      <point x="471" y="402"/>
      <point x="428" y="495"/>
      <point x="305" y="495" type="curve" smooth="yes"/>
      <point x="215" y="495"/>
      <point x="144" y="440"/>
      <point x="110" y="358" type="curve"/>
      <point x="110" y="485" type="line"/>
      <point x="90" y="485" type="line"/>
      <point x="90" y="0" type="line"/>
      <point x="110" y="0" type="line"/>
      <point x="110" y="282" type="line" smooth="yes"/>
      <point x="110" y="291"/>
      <point x="114" y="303"/>
      <point x="116" y="312" type="curve" smooth="yes"/>
      <point x="140" y="405"/>
      <point x="204" y="475"/>
      <point x="305" y="475" type="curve" smooth="yes"/>
      <point x="417" y="475"/>
      <point x="451" y="390"/>
      <point x="451" y="293" type="curve" smooth="yes"/>
      <point x="451" y="0" type="line"/>
      <point x="471" y="0" type="line"/>
    </contour>
    <contour>
      <point x="414" y="655" type="line"/>
      <point x="411" y="626"/>
      <point x="397" y="587"/>
      <point x="361" y="587" type="curve" smooth="yes"/>
      <point x="308" y="587"/>
      <point x="277" y="658"/>
      <point x="215" y="658" type="curve" smooth="yes"/>
      <point x="168" y="658"/>
      <point x="147" y="612"/>
      <point x="142" y="572" type="curve"/>
      <point x="162" y="569" type="line"/>
      <point x="165" y="599"/>
      <point x="179" y="638"/>
      <point x="214" y="638" type="curve" smooth="yes"/>
      <point x="268" y="638"/>
      <point x="299" y="567"/>
      <point x="361" y="567" type="curve" smooth="yes"/>
      <point x="409" y="567"/>
      <point x="429" y="612"/>
      <point x="434" y="653" type="curve"/>
    </contour>
  </outline>
</glyph>
<glyph name="otilde" format="1">
  <advance width="521"/>
  <unicode hex="00F5"/>
  <outline>
    <contour>
      <point x="446" y="126"/>
      <point x="393" y="10"/>
      <point x="261" y="10" type="curve" smooth="yes"/>
      <point x="128" y="10"/>
      <point x="75" y="126"/>
      <point x="75" y="243" type="curve" smooth="yes"/>
      <point x="75" y="359"/>
      <point x="128" y="475"/>
      <point x="261" y="475" type="curve" smooth="yes"/>
      <point x="393" y="475"/>
      <point x="446" y="359"/>
      <point x="446" y="243" type="curve" smooth="yes"/>
    </contour>
    <contour>
      <point x="466" y="371"/>
      <point x="405" y="495"/>
      <point x="261" y="495" type="curve" smooth="yes"/>
      <point x="116" y="495"/>
      <point x="55" y="371"/>
      <point x="55" y="243" type="curve" smooth="yes"/>
      <point x="55" y="114"/>
      <point x="116" y="-10"/>
      <point x="261" y="-10" type="curve" smooth="yes"/>
      <point x="405" y="-10"/>
      <point x="466" y="114"/>
      <point x="466" y="243" type="curve" smooth="yes"/>
    </contour>
    <contour>
      <point x="387" y="655" type="line"/>
      <point x="384" y="626"/>
      <point x="370" y="587"/>
      <point x="334" y="587" type="curve" smooth="yes"/>
      <point x="280" y="587"/>
      <point x="249" y="658"/>
      <point x="187" y="658" type="curve" smooth="yes"/>
      <point x="140" y="658"/>
      <point x="119" y="612"/>
      <point x="114" y="572" type="curve"/>
      <point x="134" y="569" type="line"/>
      <point x="138" y="599"/>
      <point x="151" y="638"/>
      <point x="187" y="638" type="curve" smooth="yes"/>
      <point x="241" y="638"/>
      <point x="272" y="567"/>
      <point x="334" y="567" type="curve" smooth="yes"/>
      <point x="381" y="567"/>
      <point x="402" y="612"/>
      <point x="407" y="653" type="curve"/>
    </contour>
  </outline>
</glyph>
<glyph name="oslash" format="1">
  <advance width="521"/>
  <unicode hex="00F8"/>
  <outline>
    <contour>
      <point x="446" y="126"/>
      <point x="393" y="10"/>
      <point x="261" y="10" type="curve" smooth="yes"/>
      <point x="190" y="10"/>
      <point x="142" y="43"/>
      <point x="113" y="91" type="curve"/>
      <point x="418" y="376" type="line"/>
      <point x="438" y="337"/>
      <point x="446" y="290"/>
      <point x="446" y="243" type="curve" smooth="yes"/>
    </contour>
    <contour>
      <point x="103" y="109" type="line"/>
      <point x="84" y="149"/>
      <point x="75" y="195"/>
      <point x="75" y="243" type="curve" smooth="yes"/>
      <point x="75" y="359"/>
      <point x="128" y="475"/>
      <point x="261" y="475" type="curve" smooth="yes"/>
      <point x="331" y="475"/>
      <point x="379" y="442"/>
      <point x="409" y="394" type="curve"/>
    </contour>
    <contour>
      <point x="514" y="492" type="line"/>
      <point x="423" y="408" type="line"/>
      <point x="390" y="460"/>
      <point x="337" y="495"/>
      <point x="261" y="495" type="curve" smooth="yes"/>
      <point x="116" y="495"/>
      <point x="55" y="371"/>
      <point x="55" y="243" type="curve" smooth="yes"/>
      <point x="55" y="190"/>
      <point x="65" y="138"/>
      <point x="87" y="95" type="curve"/>
      <point x="-7" y="7" type="line"/>
      <point x="7" y="-7" type="line"/>
      <point x="98" y="77" type="line"/>
      <point x="131" y="25"/>
      <point x="184" y="-10"/>
      <point x="261" y="-10" type="curve" smooth="yes"/>
      <point x="405" y="-10"/>
      <point x="466" y="114"/>
      <point x="466" y="243" type="curve" smooth="yes"/>
      <point x="466" y="295"/>
      <point x="456" y="347"/>
      <point x="434" y="390" type="curve"/>
      <point x="528" y="478" type="line"/>
    </contour>
  </outline>
</glyph>
<glyph name="udieresis" format="1">
  <advance width="556"/>
  <unicode hex="00FC"/>
  <outline>
    <contour>
      <point x="466" y="485" type="line"/>
      <point x="446" y="485" type="line"/>
      <point x="446" y="203" type="line" smooth="yes"/>
      <point x="446" y="194"/>
      <point x="442" y="182"/>
      <point x="440" y="173" type="curve" smooth="yes"/>
      <point x="416" y="80"/>
      <point x="352" y="10"/>
      <point x="251" y="10" type="curve" smooth="yes"/>
      <point x="139" y="10"/>
      <point x="105" y="95"/>
      <point x="105" y="192" type="curve" smooth="yes"/>
      <point x="105" y="485" type="line"/>
      <point x="85" y="485" type="line"/>
      <point x="85" y="192" type="line" smooth="yes"/>
      <point x="85" y="83"/>
      <point x="128" y="-10"/>
      <point x="251" y="-10" type="curve" smooth="yes"/>
      <point x="341" y="-10"/>
      <point x="412" y="45"/>
      <point x="446" y="127" type="curve"/>
      <point x="446" y="0" type="line"/>
      <point x="466" y="0" type="line"/>
    </contour>
    <contour>
      <point x="213" y="690" type="line"/>
      <point x="193" y="690" type="line"/>
      <point x="193" y="591" type="line"/>
      <point x="213" y="591" type="line"/>
    </contour>
    <contour>
      <point x="363" y="690" type="line"/>
      <point x="343" y="690" type="line"/>
      <point x="343" y="591" type="line"/>
      <point x="363" y="591" type="line"/>
    </contour>
  </outline>
</glyph>
<glyph name="yacute" format="1">
  <advance width="430"/>
  <unicode hex="00FD"/>
  <outline>
    <contour>
      <point x="389" y="485" type="line"/>
      <point x="215" y="18" type="line"/>
      <point x="41" y="485" type="line"/>
      <point x="20" y="485" type="line"/>
      <point x="205" y="-10" type="line"/>
      <point x="129" y="-213" type="line"/>
      <point x="151" y="-213" type="line"/>
      <point x="410" y="485" type="line"/>
    </contour>
    <contour>
      <point x="308" y="690" type="line"/>
      <point x="196" y="578" type="line"/>
      <point x="210" y="563" type="line"/>
      <point x="322" y="676" type="line"/>
    </contour>
  </outline>
</glyph>
<glyph name="thorn" format="1">
  <advance width="556"/>
  <unicode hex="00FE"/>
  <outline>
    <contour>
      <point x="481" y="126"/>
      <point x="428" y="10"/>
      <point x="296" y="10" type="curve" smooth="yes"/>
      <point x="163" y="10"/>
      <point x="110" y="126"/>
      <point x="110" y="243" type="curve" smooth="yes"/>
      <point x="110" y="359"/>
      <point x="163" y="475"/>
      <point x="296" y="475" type="curve" smooth="yes"/>
      <point x="428" y="475"/>
      <point x="481" y="359"/>
      <point x="481" y="243" type="curve" smooth="yes"/>
    </contour>
    <contour>
      <point x="501" y="371"/>
      <point x="440" y="495"/>
      <point x="296" y="495" type="curve" smooth="yes"/>
      <point x="206" y="495"/>
      <point x="142" y="445"/>
      <point x="110" y="363" type="curve"/>
      <point x="110" y="740" type="line"/>
      <point x="90" y="740" type="line"/>
      <point x="90" y="659"/>
      <point x="90" y="323"/>
      <point x="90" y="243" type="curve" smooth="yes"/>
      <point x="90" y="90"/>
      <point x="90" y="-63"/>
      <point x="90" y="-216" type="curve"/>
      <point x="110" y="-216" type="line"/>
      <point x="110" y="122" type="line"/>
      <point x="142" y="40"/>
      <point x="206" y="-10"/>
      <point x="296" y="-10" type="curve" smooth="yes"/>
      <point x="440" y="-10"/>
      <point x="501" y="114"/>
      <point x="501" y="243" type="curve" smooth="yes"/>
    </contour>
  </outline>
</glyph>
<glyph name="ydieresis" format="1">
  <advance width="430"/>
  <unicode hex="00FF"/>
  <outline>
    <contour>
      <point x="389" y="485" type="line"/>
      <point x="215" y="18" type="line"/>
      <point x="41" y="485" type="line"/>
      <point x="20" y="485" type="line"/>
      <point x="205" y="-10" type="line"/>
      <point x="129" y="-213" type="line"/>
      <point x="151" y="-213" type="line"/>
      <point x="410" y="485" type="line"/>
    </contour>
    <contour>
      <point x="150" y="690" type="line"/>
      <point x="130" y="690" type="line"/>
      <point x="130" y="591" type="line"/>
      <point x="150" y="591" type="line"/>
    </contour>
    <contour>
      <point x="300" y="690" type="line"/>
      <point x="280" y="690" type="line"/>
      <point x="280" y="591" type="line"/>
      <point x="300" y="591" type="line"/>
    </contour>
  </outline>
</glyph>
<glyph name="Lslash" format="1">
  <advance width="547"/>
  <unicode hex="0141"/>
  <outline>
    <contour>
      <point x="512" y="20" type="line"/>
      <point x="115" y="20" type="line"/>
      <point x="115" y="311" type="line"/>
      <point x="200" y="360" type="line"/>
      <point x="190" y="377" type="line"/>
      <point x="115" y="334" type="line"/>
      <point x="115" y="690" type="line"/>
      <point x="95" y="690" type="line"/>
      <point x="95" y="322" type="line"/>
      <point x="0" y="267" type="line"/>
      <point x="10" y="250" type="line"/>
      <point x="95" y="299" type="line"/>
      <point x="95" y="0" type="line"/>
      <point x="512" y="0" type="line"/>
    </contour>
  </outline>
</glyph>
<glyph name="lslash" format="1">
  <advance width="200"/>
  <unicode hex="0142"/>
  <outline>
    <contour>
      <point x="190" y="377" type="line"/>
      <point x="110" y="331" type="line"/>
      <point x="110" y="740" type="line"/>
      <point x="90" y="740" type="line"/>
      <point x="90" y="319" type="line"/>
      <point x="0" y="267" type="line"/>
      <point x="10" y="250" type="line"/>
      <point x="90" y="296" type="line"/>
      <point x="90" y="0" type="line"/>
      <point x="110" y="0" type="line"/>
      <point x="110" y="308" type="line"/>
      <point x="200" y="360" type="line"/>
    </contour>
  </outline>
</glyph>
<glyph name="OE" format="1">
  <advance width="846"/>
  <unicode hex="0152"/>
  <outline>
    <contour>
      <point x="170" y="20"/>
      <point x="80" y="166"/>
      <point x="80" y="345" type="curve" smooth="yes"/>
      <point x="80" y="524"/>
      <point x="170" y="670"/>
      <point x="364" y="670" type="curve"/>
      <point x="364" y="20" type="line"/>
    </contour>
    <contour>
      <point x="781" y="20" type="line"/>
      <point x="384" y="20" type="line"/>
      <point x="384" y="335" type="line"/>
      <point x="734" y="335" type="line"/>
      <point x="734" y="355" type="line"/>
      <point x="384" y="355" type="line"/>
      <point x="384" y="670" type="line"/>
      <point x="781" y="670" type="line"/>
      <point x="781" y="690" type="line"/>
      <point x="364" y="690" type="line" smooth="yes"/>
      <point x="159" y="690"/>
      <point x="60" y="536"/>
      <point x="60" y="345" type="curve" smooth="yes"/>
      <point x="60" y="154"/>
      <point x="159" y="0"/>
      <point x="364" y="0" type="curve" smooth="yes"/>
      <point x="781" y="0" type="line"/>
    </contour>
  </outline>
</glyph>
<glyph name="oe" format="1">
  <advance width="902"/>
  <unicode hex="0153"/>
  <outline>
    <contour>
      <point x="446" y="126"/>
      <point x="393" y="10"/>
      <point x="261" y="10" type="curve" smooth="yes"/>
      <point x="128" y="10"/>
      <point x="75" y="126"/>
      <point x="75" y="243" type="curve" smooth="yes"/>
      <point x="75" y="359"/>
      <point x="128" y="475"/>
      <point x="261" y="475" type="curve" smooth="yes"/>
      <point x="393" y="475"/>
      <point x="446" y="359"/>
      <point x="446" y="243" type="curve" smooth="yes"/>
    </contour>
    <contour>
      <point x="466" y="253" type="line"/>
      <point x="469" y="367"/>
      <point x="524" y="475"/>
      <point x="652" y="475" type="curve" smooth="yes"/>
      <point x="779" y="475"/>
      <point x="834" y="366"/>
      <point x="837" y="253" type="curve"/>
    </contour>
    <contour>
      <point x="857" y="367"/>
      <point x="803" y="495"/>
      <point x="652" y="495" type="curve" smooth="yes"/>
      <point x="546" y="495"/>
      <point x="480" y="427"/>
      <point x="456" y="329" type="curve"/>
      <point x="432" y="427"/>
      <point x="366" y="495"/>
      <point x="261" y="495" type="curve" smooth="yes"/>
      <point x="117" y="495"/>
      <point x="55" y="371"/>
      <point x="55" y="243" type="curve" smooth="yes"/>
      <point x="55" y="114"/>
      <point x="117" y="-10"/>
      <point x="261" y="-10" type="curve" smooth="yes"/>
      <point x="366" y="-10"/>
      <point x="432" y="58"/>
      <point x="456" y="156" type="curve"/>
      <point x="480" y="58"/>
      <point x="546" y="-10"/>
      <point x="652" y="-10" type="curve" smooth="yes"/>
      <point x="736" y="-10"/>
      <point x="800" y="35"/>
      <point x="833" y="112" type="curve"/>
      <point x="814" y="120" type="line"/>
      <point x="785" y="50"/>
      <point x="728" y="10"/>
      <point x="652" y="10" type="curve" smooth="yes"/>
      <point x="524" y="10"/>
      <point x="469" y="122"/>
      <point x="466" y="236" type="curve"/>
      <point x="857" y="236" type="line"/>
    </contour>
  </outline>
</glyph>
<glyph name="Scaron" format="1">
  <advance width="592"/>
  <unicode hex="0160"/>
  <outline>
    <contour>
      <point x="532" y="431"/>
      <point x="108" y="286"/>
      <point x="108" y="513" type="curve" smooth="yes"/>
      <point x="108" y="620"/>
      <point x="195" y="680"/>
      <point x="296" y="680" type="curve" smooth="yes"/>
      <point x="395" y="680"/>
      <point x="472" y="632"/>
      <point x="500" y="534" type="curve"/>
      <point x="520" y="540" type="line"/>
      <point x="488" y="646"/>
      <point x="404" y="700"/>
      <point x="296" y="700" type="curve" smooth="yes"/>
      <point x="184" y="700"/>
      <point x="88" y="631"/>
      <point x="88" y="513" type="curve" smooth="yes"/>
      <point x="88" y="265"/>
      <point x="512" y="411"/>
      <point x="512" y="176" type="curve" smooth="yes"/>
      <point x="512" y="52"/>
      <point x="414" y="10"/>
      <point x="305" y="10" type="curve" smooth="yes"/>
      <point x="190" y="10"/>
      <point x="105" y="59"/>
      <point x="69" y="172" type="curve"/>
      <point x="50" y="166" type="line"/>
      <point x="88" y="44"/>
      <point x="181" y="-10"/>
      <point x="305" y="-10" type="curve" smooth="yes"/>
      <point x="425" y="-10"/>
      <point x="532" y="40"/>
      <point x="532" y="176" type="curve" smooth="yes"/>
    </contour>
    <contour>
      <point x="394" y="870" type="line"/>
      <point x="296" y="772" type="line"/>
      <point x="198" y="870" type="line"/>
      <point x="183" y="856" type="line"/>
      <point x="296" y="743" type="line"/>
      <point x="408" y="856" type="line"/>
    </contour>
  </outline>
</glyph>
<glyph name="scaron" format="1">
  <advance width="431"/>
  <unicode hex="0161"/>
  <outline>
    <contour>
      <point x="381" y="306"/>
      <point x="83" y="205"/>
      <point x="83" y="360" type="curve" smooth="yes"/>
      <point x="83" y="434"/>
      <point x="144" y="475"/>
      <point x="212" y="475" type="curve" smooth="yes"/>
      <point x="286" y="475"/>
      <point x="332" y="443"/>
      <point x="362" y="377" type="curve"/>
      <point x="380" y="384" type="line"/>
      <point x="348" y="459"/>
      <point x="294" y="495"/>
      <point x="212" y="495" type="curve" smooth="yes"/>
      <point x="132" y="495"/>
      <point x="63" y="445"/>
      <point x="63" y="360" type="curve" smooth="yes"/>
      <point x="63" y="183"/>
      <point x="361" y="285"/>
      <point x="361" y="123" type="curve" smooth="yes"/>
      <point x="361" y="37"/>
      <point x="295" y="10"/>
      <point x="219" y="10" type="curve" smooth="yes"/>
      <point x="138" y="10"/>
      <point x="90" y="42"/>
      <point x="58" y="117" type="curve"/>
      <point x="40" y="109" type="line"/>
      <point x="74" y="28"/>
      <point x="129" y="-10"/>
      <point x="219" y="-10" type="curve" smooth="yes"/>
      <point x="307" y="-10"/>
      <point x="381" y="25"/>
      <point x="381" y="123" type="curve" smooth="yes"/>
    </contour>
    <contour>
      <point x="314" y="690" type="line"/>
      <point x="216" y="592" type="line"/>
      <point x="117" y="690" type="line"/>
      <point x="103" y="676" type="line"/>
      <point x="216" y="563" type="line"/>
      <point x="328" y="676" type="line"/>
    </contour>
  </outline>
</glyph>
<glyph name="Ydieresis" format="1">
  <advance width="606"/>
  <unicode hex="0178"/>
  <outline>
    <contour>
      <point x="552" y="690" type="line"/>
      <point x="303" y="289" type="line"/>
      <point x="54" y="690" type="line"/>
      <point x="30" y="690" type="line"/>
      <point x="293" y="267" type="line"/>
      <point x="293" y="-10" type="line"/>
      <point x="313" y="-10" type="line"/>
      <point x="313" y="267" type="line"/>
      <point x="576" y="690" type="line"/>
    </contour>
    <contour>
      <point x="238" y="850" type="line"/>
      <point x="218" y="850" type="line"/>
      <point x="218" y="751" type="line"/>
      <point x="238" y="751" type="line"/>
    </contour>
    <contour>
      <point x="388" y="850" type="line"/>
      <point x="368" y="850" type="line"/>
      <point x="368" y="751" type="line"/>
      <point x="388" y="751" type="line"/>
    </contour>
  </outline>
</glyph>
<glyph name="Zcaron" format="1">
  <advance width="620"/>
  <unicode hex="017D"/>
  <outline>
    <contour>
      <point x="560" y="20" type="line"/>
      <point x="70" y="20" type="line"/>
      <point x="560" y="663" type="line"/>
      <point x="560" y="690" type="line"/>
      <point x="72" y="690" type="line"/>
      <point x="72" y="670" type="line"/>
      <point x="540" y="670" type="line"/>
      <point x="52" y="29" type="line"/>
      <point x="52" y="0" type="line"/>
      <point x="560" y="0" type="line"/>
    </contour>
    <contour>
      <point x="408" y="870" type="line"/>
      <point x="310" y="772" type="line"/>
      <point x="212" y="870" type="line"/>
      <point x="198" y="856" type="line"/>
      <point x="310" y="743" type="line"/>
      <point x="423" y="856" type="line"/>
    </contour>
  </outline>
</glyph>
<glyph name="zcaron" format="1">
  <advance width="492"/>
  <unicode hex="017E"/>
  <outline>
    <contour>
      <point x="71" y="485" type="line"/>
      <point x="71" y="465" type="line"/>
      <point x="407" y="465" type="line"/>
      <point x="45" y="0" type="line"/>
      <point x="436" y="0" type="line"/>
      <point x="436" y="20" type="line"/>
      <point x="86" y="20" type="line"/>
      <point x="447" y="485" type="line"/>
    </contour>
    <contour>
      <point x="354" y="690" type="line"/>
      <point x="256" y="592" type="line"/>
      <point x="158" y="690" type="line"/>
      <point x="144" y="676" type="line"/>
      <point x="256" y="563" type="line"/>
      <point x="369" y="676" type="line"/>
    </contour>
  </outline>
</glyph>
<glyph name="circumflex" format="1">
  <advance width="0"/>
  <unicode hex="02C6"/>
  <outline>
    <contour>
      <point x="0" y="690" type="line"/>
      <point x="-112" y="578" type="line"/>
      <point x="-98" y="563" type="line"/>
      <point x="0" y="662" type="line"/>
      <point x="98" y="563" type="line"/>
      <point x="112" y="578" type="line"/>
    </contour>
  </outline>
</glyph>
<glyph name="caron" format="1">
  <advance width="0"/>
  <unicode hex="02C7"/>
  <outline>
    <contour>
      <point x="98" y="690" type="line"/>
      <point x="0" y="592" type="line"/>
      <point x="-98" y="690" type="line"/>
      <point x="-112" y="676" type="line"/>
      <point x="0" y="563" type="line"/>
      <point x="112" y="676" type="line"/>
    </contour>
  </outline>
</glyph>
<glyph name="ring" format="1">
  <advance width="0"/>
  <unicode hex="02DA"/>
  <outline>
    <contour>
      <point x="59" y="726"/>
      <point x="32" y="700"/>
      <point x="0" y="700" type="curve" smooth="yes"/>
      <point x="-32" y="700"/>
      <point x="-59" y="726"/>
      <point x="-59" y="759" type="curve" smooth="yes"/>
      <point x="-59" y="791"/>
      <point x="-32" y="817"/>
      <point x="0" y="817" type="curve" smooth="yes"/>
      <point x="32" y="817"/>
      <point x="59" y="791"/>
      <point x="59" y="759" type="curve" smooth="yes"/>
    </contour>
    <contour>
      <point x="79" y="802"/>
      <point x="43" y="837"/>
      <point x="0" y="837" type="curve" smooth="yes"/>
      <point x="-43" y="837"/>
      <point x="-79" y="802"/>
      <point x="-79" y="759" type="curve" smooth="yes"/>
      <point x="-79" y="715"/>
      <point x="-43" y="680"/>
      <point x="0" y="680" type="curve" smooth="yes"/>
      <point x="43" y="680"/>
      <point x="79" y="715"/>
      <point x="79" y="759" type="curve" smooth="yes"/>
    </contour>
  </outline>
</glyph>
<glyph name="tilde" format="1">
  <advance width="0"/>
  <unicode hex="02DC"/>
  <outline>
    <contour>
      <point x="126" y="655" type="line"/>
      <point x="123" y="626"/>
      <point x="109" y="587"/>
      <point x="73" y="587" type="curve" smooth="yes"/>
      <point x="20" y="587"/>
      <point x="-11" y="658"/>
      <point x="-73" y="658" type="curve" smooth="yes"/>
      <point x="-120" y="658"/>
      <point x="-141" y="612"/>
      <point x="-146" y="572" type="curve"/>
      <point x="-126" y="569" type="line"/>
      <point x="-123" y="599"/>
      <point x="-109" y="638"/>
      <point x="-74" y="638" type="curve" smooth="yes"/>
      <point x="-20" y="638"/>
      <point x="11" y="567"/>
      <point x="73" y="567" type="curve" smooth="yes"/>
      <point x="121" y="567"/>
      <point x="141" y="612"/>
      <point x="146" y="653" type="curve"/>
    </contour>
  </outline>
</glyph>
<glyph name="Delta" format="1">
  <advance width="575"/>
  <unicode hex="0394"/>
  <outline>
    <contour>
      <point x="70" y="20" type="line"/>
      <point x="288" y="520" type="line"/>
      <point x="505" y="20" type="line"/>
    </contour>
    <contour>
      <point x="288" y="570" type="line"/>
      <point x="40" y="0" type="line"/>
      <point x="535" y="0" type="line"/>
    </contour>
  </outline>
</glyph>
<glyph name="endash" format="1">
  <advance width="375"/>
  <unicode hex="2013"/>
  <outline>
    <contour>
      <point x="355" y="253" type="line"/>
      <point x="20" y="253" type="line"/>
      <point x="20" y="233" type="line"/>
      <point x="355" y="233" type="line"/>
    </contour>
  </outline>
</glyph>
<glyph name="emdash" format="1">
  <advance width="655"/>
  <unicode hex="2014"/>
  <outline>
    <contour>
      <point x="655" y="253" type="line"/>
      <point x="0" y="253" type="line"/>
      <point x="0" y="233" type="line"/>
      <point x="655" y="233" type="line"/>
    </contour>
  </outline>
</glyph>
<glyph name="dagger" format="1">
  <advance width="280"/>
  <unicode hex="2020"/>
  <outline>
    <contour>
      <point x="240" y="485" type="line"/>
      <point x="150" y="485" type="line"/>
      <point x="150" y="740" type="line"/>
      <point x="130" y="740" type="line"/>
      <point x="130" y="485" type="line"/>
      <point x="40" y="485" type="line"/>
      <point x="40" y="465" type="line"/>
      <point x="130" y="465" type="line"/>
      <point x="130" y="0" type="line"/>
      <point x="150" y="0" type="line"/>
      <point x="150" y="465" type="line"/>
      <point x="240" y="465" type="line"/>
    </contour>
  </outline>
</glyph>
<glyph name="daggerdbl" format="1">
  <advance width="280"/>
  <unicode hex="2021"/>
  <outline>
    <contour>
      <point x="240" y="275" type="line"/>
      <point x="150" y="275" type="line"/>
      <point x="150" y="465" type="line"/>
      <point x="240" y="465" type="line"/>
      <point x="240" y="485" type="line"/>
      <point x="150" y="485" type="line"/>
      <point x="150" y="740" type="line"/>
      <point x="130" y="740" type="line"/>
      <point x="130" y="485" type="line"/>
      <point x="40" y="485" type="line"/>
      <point x="40" y="465" type="line"/>
      <point x="130" y="465" type="line"/>
      <point x="130" y="275" type="line"/>
      <point x="40" y="275" type="line"/>
      <point x="40" y="255" type="line"/>
      <point x="130" y="255" type="line"/>
      <point x="130" y="0" type="line"/>
      <point x="150" y="0" type="line"/>
      <point x="150" y="255" type="line"/>
      <point x="240" y="255" type="line"/>
    </contour>
  </outline>
</glyph>
<glyph name="bullet" format="1">
  <advance width="192"/>
  <unicode hex="2022"/>
  <outline>
    <contour>
      <point x="137" y="258"/>
      <point x="119" y="276"/>
      <point x="96" y="276" type="curve" smooth="yes"/>
      <point x="73" y="276"/>
      <point x="55" y="258"/>
      <point x="55" y="235" type="curve" smooth="yes"/>
      <point x="55" y="212"/>
      <point x="73" y="194"/>
      <point x="96" y="194" type="curve" smooth="yes"/>
      <point x="119" y="194"/>
      <point x="137" y="212"/>
      <point x="137" y="235" type="curve" smooth="yes"/>
    </contour>
  </outline>
</glyph>
<glyph name="ellipsis" format="1">
  <advance width="490"/>
  <unicode hex="2026"/>
  <outline>
    <contour>
      <point x="105" y="99" type="line"/>
      <point x="85" y="99" type="line"/>
      <point x="85" y="0" type="line"/>
      <point x="105" y="0" type="line"/>
    </contour>
    <contour>
      <point x="255" y="99" type="line"/>
      <point x="235" y="99" type="line"/>
      <point x="235" y="0" type="line"/>
      <point x="255" y="0" type="line"/>
    </contour>
    <contour>
      <point x="405" y="99" type="line"/>
      <point x="385" y="99" type="line"/>
      <point x="385" y="0" type="line"/>
      <point x="405" y="0" type="line"/>
    </contour>
  </outline>
</glyph>
<glyph name="fraction" format="1">
  <advance width="212"/>
  <unicode hex="2044"/>
  <outline>
    <contour>
      <point x="221" y="690" type="line"/>
      <point x="-30" y="0" type="line"/>
      <point x="-9" y="0" type="line"/>
      <point x="242" y="690" type="line"/>
    </contour>
  </outline>
</glyph>
<glyph name="trademark" format="1">
  <advance width="477"/>
  <unicode hex="2122"/>
  <outline>
    <contour>
      <point x="175" y="690" type="line"/>
      <point x="20" y="690" type="line"/>
      <point x="20" y="670" type="line"/>
      <point x="87" y="670" type="line"/>
      <point x="87" y="478" type="line"/>
      <point x="107" y="478" type="line"/>
      <point x="107" y="670" type="line"/>
      <point x="175" y="670" type="line"/>
    </contour>
    <contour>
      <point x="427" y="690" type="line"/>
      <point x="409" y="690" type="line"/>
      <point x="325" y="502" type="line"/>
      <point x="240" y="690" type="line"/>
      <point x="221" y="690" type="line"/>
      <point x="221" y="478" type="line"/>
      <point x="241" y="478" type="line"/>
      <point x="241" y="637" type="line"/>
      <point x="314" y="478" type="line"/>
      <point x="335" y="478" type="line"/>
      <point x="407" y="637" type="line"/>
      <point x="407" y="478" type="line"/>
      <point x="427" y="478" type="line"/>
    </contour>
  </outline>
</glyph>
<glyph name="minus" format="1">
  <advance width="335"/>
  <unicode hex="2212"/>
  <outline>
    <contour>
      <point x="315" y="253" type="line"/>
      <point x="20" y="253" type="line"/>
      <point x="20" y="233" type="line"/>
      <point x="315" y="233" type="line"/>
    </contour>
  </outline>
</glyph>
<glyph name="infinity" format="1">
  <advance width="912"/>
  <unicode hex="221E"/>
  <outline>
    <contour>
      <point x="446" y="126"/>
      <point x="393" y="10"/>
      <point x="261" y="10" type="curve" smooth="yes"/>
      <point x="128" y="10"/>
      <point x="75" y="126"/>
      <point x="75" y="243" type="curve" smooth="yes"/>
      <point x="75" y="359"/>
      <point x="128" y="475"/>
      <point x="261" y="475" type="curve" smooth="yes"/>
      <point x="393" y="475"/>
      <point x="446" y="359"/>
      <point x="446" y="243" type="curve" smooth="yes"/>
    </contour>
    <contour>
      <point x="837" y="126"/>
      <point x="784" y="10"/>
      <point x="652" y="10" type="curve" smooth="yes"/>
      <point x="519" y="10"/>
      <point x="466" y="126"/>
      <point x="466" y="243" type="curve" smooth="yes"/>
      <point x="466" y="359"/>
      <point x="519" y="475"/>
      <point x="652" y="475" type="curve" smooth="yes"/>
      <point x="784" y="475"/>
      <point x="837" y="359"/>
      <point x="837" y="243" type="curve" smooth="yes"/>
    </contour>
    <contour>
      <point x="857" y="371"/>
      <point x="796" y="495"/>
      <point x="652" y="495" type="curve" smooth="yes"/>
      <point x="546" y="495"/>
      <point x="480" y="427"/>
      <point x="456" y="329" type="curve"/>
      <point x="432" y="427"/>
      <point x="366" y="495"/>
      <point x="261" y="495" type="curve" smooth="yes"/>
      <point x="117" y="495"/>
      <point x="55" y="371"/>
      <point x="55" y="243" type="curve" smooth="yes"/>
      <point x="55" y="114"/>
      <point x="117" y="-10"/>
      <point x="261" y="-10" type="curve" smooth="yes"/>
      <point x="366" y="-10"/>
      <point x="432" y="58"/>
      <point x="456" y="156" type="curve"/>
      <point x="480" y="58"/>
      <point x="546" y="-10"/>
      <point x="652" y="-10" type="curve" smooth="yes"/>
      <point x="796" y="-10"/>
      <point x="857" y="114"/>
      <point x="857" y="243" type="curve" smooth="yes"/>
    </contour>
  </outline>
</glyph>
<glyph name="notequal" format="1">
  <advance width="335"/>
  <unicode hex="2260"/>
  <outline>
    <contour>
      <point x="315" y="183" type="line"/>
      <point x="151" y="183" type="line"/>
      <point x="209" y="303" type="line"/>
      <point x="315" y="303" type="line"/>
      <point x="315" y="323" type="line"/>
      <point x="219" y="323" type="line"/>
      <point x="268" y="425" type="line"/>
      <point x="247" y="425" type="line"/>
      <point x="198" y="323" type="line"/>
      <point x="20" y="323" type="line"/>
      <point x="20" y="303" type="line"/>
      <point x="188" y="303" type="line"/>
      <point x="130" y="183" type="line"/>
      <point x="20" y="183" type="line"/>
      <point x="20" y="163" type="line"/>
      <point x="120" y="163" type="line"/>
      <point x="71" y="60" type="line"/>
      <point x="92" y="60" type="line"/>
      <point x="141" y="163" type="line"/>
      <point x="315" y="163" type="line"/>
    </contour>
  </outline>
</glyph>
<glyph name="fi" format="1">
  <advance width="511"/>
  <unicode hex="FB01"/>
  <outline>
    <contour>
      <point x="426" y="465" type="line"/>
      <point x="426" y="485" type="line"/>
      <point x="406" y="485" type="line"/>
      <point x="166" y="485" type="line"/>
      <point x="166" y="621" type="line" smooth="yes"/>
      <point x="166" y="680"/>
      <point x="184" y="720"/>
      <point x="249" y="720" type="curve" smooth="yes"/>
      <point x="271" y="720"/>
      <point x="292" y="716"/>
      <point x="314" y="710" type="curve"/>
      <point x="318" y="730" type="line"/>
      <point x="296" y="736"/>
      <point x="272" y="740"/>
      <point x="249" y="740" type="curve" smooth="yes"/>
      <point x="172" y="740"/>
      <point x="146" y="691"/>
      <point x="146" y="621" type="curve" smooth="yes"/>
      <point x="146" y="485" type="line"/>
      <point x="30" y="485" type="line"/>
      <point x="30" y="465" type="line"/>
      <point x="146" y="465" type="line"/>
      <point x="146" y="0" type="line"/>
      <point x="166" y="0" type="line"/>
      <point x="166" y="465" type="line"/>
      <point x="406" y="465" type="line"/>
      <point x="406" y="0" type="line"/>
      <point x="426" y="0" type="line"/>
    </contour>
  </outline>
</glyph>
<glyph name="fl" format="1">
  <advance width="511"/>
  <unicode hex="FB02"/>
  <outline>
    <contour>
      <point x="426" y="740" type="line"/>
      <point x="406" y="740" type="line"/>
      <point x="406" y="692" type="line"/>
      <point x="355" y="716"/>
      <point x="270" y="740"/>
      <point x="249" y="740" type="curve" smooth="yes"/>
      <point x="172" y="740"/>
      <point x="146" y="691"/>
      <point x="146" y="621" type="curve" smooth="yes"/>
      <point x="146" y="485" type="line"/>
      <point x="30" y="485" type="line"/>
      <point x="30" y="465" type="line"/>
      <point x="146" y="465" type="line"/>
      <point x="146" y="0" type="line"/>
      <point x="166" y="0" type="line"/>
      <point x="166" y="465" type="line"/>
      <point x="282" y="465" type="line"/>
      <point x="282" y="485" type="line"/>
      <point x="166" y="485" type="line"/>
      <point x="166" y="621" type="line" smooth="yes"/>
      <point x="166" y="680"/>
      <point x="184" y="720"/>
      <point x="249" y="720" type="curve" smooth="yes"/>
      <point x="269" y="720"/>
      <point x="350" y="698"/>
      <point x="406" y="671" type="curve"/>
      <point x="406" y="0" type="line"/>
      <point x="426" y="0" type="line"/>
    </contour>
  </outline>
</glyph>
<glyph name=".notdef" format="1">
  <advance width="500"/>
  <outline>
    <contour>
      <point x="85" y="718" type="line"/>
      <point x="415" y="718" type="line"/>
      <point x="415" y="23" type="line"/>
      <point x="85" y="23" type="line"/>
    </contour>
    <contour>
      <point x="438" y="0" type="line"/>
      <point x="438" y="740" type="line"/>
      <point x="63" y="740" type="line"/>
      <point x="63" y="0" type="line"/>
    </contour>
  </outline>
</glyph>
